<?xml version="1.0" encoding="UTF-8" standalone="no"?>
<!-- Created with Inkscape (http://www.inkscape.org/) -->

<svg
   xmlns:dc="http://purl.org/dc/elements/1.1/"
   xmlns:cc="http://creativecommons.org/ns#"
   xmlns:rdf="http://www.w3.org/1999/02/22-rdf-syntax-ns#"
   xmlns:svg="http://www.w3.org/2000/svg"
   xmlns="http://www.w3.org/2000/svg"
   xmlns:xlink="http://www.w3.org/1999/xlink"
   xmlns:sodipodi="http://sodipodi.sourceforge.net/DTD/sodipodi-0.dtd"
   xmlns:inkscape="http://www.inkscape.org/namespaces/inkscape"
   sodipodi:docname="First.svg"
   inkscape:version="0.48.2 r9819"
   version="1.1"
   id="svg2"
   height="297mm"
   width="210mm">
  <defs
     id="defs4">
    <linearGradient
       id="linearGradient3962">
      <stop
         id="stop3964"
         offset="0"
         style="stop-color:#969696;stop-opacity:0;" />
      <stop
         style="stop-color:#b0b0b0;stop-opacity:0;"
         offset="0.26988763"
         id="stop3966" />
      <stop
         style="stop-color:#f8ff29;stop-opacity:0.52459013;"
         offset="0.47434276"
         id="stop3968" />
      <stop
         id="stop3970"
         offset="0.61197346"
         style="stop-color:#764600;stop-opacity:0.51639342;" />
      <stop
         style="stop-color:#ffb693;stop-opacity:0.68032789;"
         offset="0.70017713"
         id="stop3972" />
      <stop
         id="stop3974"
         offset="1"
         style="stop-color:#949494;stop-opacity:0;" />
    </linearGradient>
    <linearGradient
       id="linearGradient3874">
      <stop
         style="stop-color:#969696;stop-opacity:0;"
         offset="0"
         id="stop3876" />
      <stop
         id="stop3888"
         offset="0.26988763"
         style="stop-color:#b0b0b0;stop-opacity:0;" />
      <stop
         id="stop3882"
         offset="0.47434276"
         style="stop-color:#949494;stop-opacity:1" />
      <stop
         style="stop-color:#ffffff;stop-opacity:1;"
         offset="0.61197346"
         id="stop3884" />
      <stop
         id="stop3886"
         offset="0.70017713"
         style="stop-color:#c9c9c9;stop-opacity:0.57377046;" />
      <stop
         style="stop-color:#949494;stop-opacity:0;"
         offset="1"
         id="stop3878" />
    </linearGradient>
    <linearGradient
       inkscape:collect="always"
       xlink:href="#linearGradient3874-4"
       id="linearGradient3880-8"
       x1="323.37628"
       y1="97.40062"
       x2="-103.71119"
       y2="8.9522629"
       gradientUnits="userSpaceOnUse" />
    <linearGradient
       id="linearGradient3874-4">
      <stop
         style="stop-color:#969696;stop-opacity:0;"
         offset="0"
         id="stop3876-0" />
      <stop
         id="stop3888-3"
         offset="0.26988763"
         style="stop-color:#b0b0b0;stop-opacity:0;" />
      <stop
         id="stop3882-5"
         offset="0.47434276"
         style="stop-color:#949494;stop-opacity:1" />
      <stop
         style="stop-color:#ffffff;stop-opacity:1;"
         offset="0.61197346"
         id="stop3884-8" />
      <stop
         id="stop3886-9"
         offset="0.70017713"
         style="stop-color:#c9c9c9;stop-opacity:0.57377046;" />
      <stop
         style="stop-color:#949494;stop-opacity:0;"
         offset="1"
         id="stop3878-3" />
    </linearGradient>
    <linearGradient
       inkscape:collect="always"
       xlink:href="#linearGradient3962"
       id="linearGradient3880-4"
       x1="323.37628"
       y1="97.40062"
       x2="-103.71119"
       y2="8.9522629"
       gradientUnits="userSpaceOnUse" />
    <linearGradient
       id="linearGradient3874-5">
      <stop
         style="stop-color:#969696;stop-opacity:0;"
         offset="0"
         id="stop3876-3" />
      <stop
         id="stop3888-5"
         offset="0.26988763"
         style="stop-color:#b0b0b0;stop-opacity:0;" />
      <stop
         id="stop3882-9"
         offset="0.47434276"
         style="stop-color:#949494;stop-opacity:1" />
      <stop
         style="stop-color:#ffffff;stop-opacity:1;"
         offset="0.61197346"
         id="stop3884-4" />
      <stop
         id="stop3886-2"
         offset="0.70017713"
         style="stop-color:#c9c9c9;stop-opacity:0.57377046;" />
      <stop
         style="stop-color:#949494;stop-opacity:0;"
         offset="1"
         id="stop3878-7" />
    </linearGradient>
    <linearGradient
       y2="8.9522629"
       x2="-103.71119"
       y1="97.40062"
       x1="323.37628"
       gradientUnits="userSpaceOnUse"
       id="linearGradient3909-0"
       xlink:href="#linearGradient3874-5"
       inkscape:collect="always" />
  </defs>
  <sodipodi:namedview
     id="base"
     pagecolor="#ffffff"
     bordercolor="#666666"
     borderopacity="1.0"
     inkscape:pageopacity="0.0"
     inkscape:pageshadow="2"
     inkscape:zoom="2.8284271"
     inkscape:cx="190.5996"
     inkscape:cy="950.60811"
     inkscape:document-units="px"
     inkscape:current-layer="layer1"
     showgrid="false"
     inkscape:window-width="1280"
     inkscape:window-height="972"
     inkscape:window-x="1432"
     inkscape:window-y="-8"
     inkscape:window-maximized="1"
     inkscape:snap-grids="true"
     inkscape:snap-object-midpoints="true"
     inkscape:snap-global="false">
    <inkscape:grid
       type="xygrid"
       id="grid2985" />
  </sodipodi:namedview>
  <metadata
     id="metadata7">
    <rdf:RDF>
      <cc:Work
         rdf:about="">
        <dc:format>image/svg+xml</dc:format>
        <dc:type
           rdf:resource="http://purl.org/dc/dcmitype/StillImage" />
        <dc:title></dc:title>
      </cc:Work>
    </rdf:RDF>
  </metadata>
  <g
     inkscape:label="Calque 1"
     inkscape:groupmode="layer"
     id="layer1">
    <path
       transform="matrix(0.8301861,0.55748636,-0.55748636,0.8301861,128.4075,-24.287911)"
       d="m 265.71429,86.647898 -75.77642,55.423422 29.50601,28.41084 -93.88148,0.29823 7.17139,40.32804 L 56.606777,156.16755 38.704326,193.00886 9.4097165,103.81443 -26.728447,123.09687 1.9988888,33.718121 -38.571437,28.076468 37.204978,-27.346957 7.6989756,-55.75779 l 93.8814844,-0.298233 -7.171394,-40.32804 76.127014,54.940874 17.90245,-36.841307 29.29461,89.194434 36.13816,-19.2824457 -28.72734,89.3787527 z"
       inkscape:randomized="0"
       inkscape:rounded="0"
       inkscape:flatsided="false"
       sodipodi:arg2="0.83714557"
       sodipodi:arg1="0.19016241"
       sodipodi:r2="114.05031"
       sodipodi:r1="154.93581"
       sodipodi:cy="57.362183"
       sodipodi:cx="113.57143"
       sodipodi:sides="10"
       id="path2997"
       style="color:#000000;fill:#ffff00;fill-opacity:1;fill-rule:evenodd;stroke:none;stroke-width:0.5;marker:none;visibility:visible;display:inline;overflow:visible;enable-background:accumulate"
       sodipodi:type="star" />
    <path
       sodipodi:type="star"
       style="color:#000000;fill:#ff7f2a;fill-opacity:1;fill-rule:evenodd;stroke:none;stroke-width:0.5;marker:none;visibility:visible;display:inline;overflow:visible;enable-background:accumulate"
       id="path2995"
       sodipodi:sides="10"
       sodipodi:cx="113.57143"
       sodipodi:cy="57.362183"
       sodipodi:r1="154.93581"
       sodipodi:r2="114.05031"
       sodipodi:arg1="0.19016241"
       sodipodi:arg2="0.83714557"
       inkscape:flatsided="false"
       inkscape:rounded="0"
       inkscape:randomized="0"
       d="m 265.71429,86.647898 -75.77642,55.423422 29.50601,28.41084 -93.88148,0.29823 7.17139,40.32804 L 56.606777,156.16755 38.704326,193.00886 9.4097165,103.81443 -26.728447,123.09687 1.9988888,33.718121 -38.571437,28.076468 37.204978,-27.346957 7.6989756,-55.75779 l 93.8814844,-0.298233 -7.171394,-40.32804 76.127014,54.940874 17.90245,-36.841307 29.29461,89.194434 36.13816,-19.2824457 -28.72734,89.3787527 z"
       transform="matrix(0.70680163,0.54602129,-0.54602129,0.70680163,141.76279,-15.908204)" />
    <path
       sodipodi:type="star"
       style="color:#000000;fill:url(#linearGradient3880-4);fill-opacity:1;fill-rule:evenodd;stroke:none;stroke-width:0.44657245000000001;marker:none;visibility:visible;display:inline;overflow:visible;enable-background:accumulate;opacity:1"
       id="path3911"
       sodipodi:sides="10"
       sodipodi:cx="113.57143"
       sodipodi:cy="57.362183"
       sodipodi:r1="154.93581"
       sodipodi:r2="114.05031"
       sodipodi:arg1="0.19016241"
       sodipodi:arg2="0.83714557"
       inkscape:flatsided="false"
       inkscape:rounded="0"
       inkscape:randomized="0"
       d="m 265.71429,86.647898 -75.77642,55.423422 29.50601,28.41084 -93.88148,0.29823 7.17139,40.32804 L 56.606777,156.16755 38.704326,193.00886 9.4097165,103.81443 -26.728447,123.09687 1.9988888,33.718121 -38.571437,28.076468 37.204978,-27.346957 7.6989756,-55.75779 l 93.8814844,-0.298233 -7.171394,-40.32804 76.127014,54.940874 17.90245,-36.841307 29.29461,89.194434 36.13816,-19.2824457 -28.72734,89.3787527 z"
       transform="matrix(0.8301861,0.55748636,-0.55748636,0.8301861,128.4075,-24.287911)"
       inkscape:export-filename=".\First.png"
       inkscape:export-xdpi="360"
       inkscape:export-ydpi="360" />
    <path
       inkscape:connector-curvature="0"
       id="path8173"
       d="m 131.40962,141.27339 c 0.36133,0.039 1.27441,1.00097 1.87012,0.9668 0.59082,-0.0343 1.40625,-0.9961 1.76758,-1.07423 0.36132,-0.083 1.6455,0.23927 2.01171,0.0927 0.36622,-0.15136 0.88868,-1.57226 1.19629,-1.75781 0.30762,-0.19042 1.42578,-0.49805 1.70411,-0.74707 0.2832,-0.24414 0.90332,-1.16699 1.13769,-1.45019 0.22949,-0.28321 0.86426,-1.167 1.04492,-1.48438 0.18555,-0.31738 0.83496,-1.22558 0.9668,-1.57715 0.13184,-0.34668 -0.0439,-1.52343 0.0195,-1.875 0.0684,-0.35156 0.23437,-1.40137 0.24414,-1.75781 0.01,-0.36132 0.15137,-1.44531 0.0977,-1.80664 -0.0488,-0.36621 -0.29785,-1.4209 -0.41016,-1.76758 -0.10742,-0.35157 -0.82031,-1.21094 -0.98144,-1.52832 -0.16113,-0.31738 -0.3125,-1.48437 -0.53223,-1.78222 -0.21972,-0.29786 -1.24023,-0.84474 -1.49414,-1.08888 -0.25879,-0.24902 -0.82519,-1.25976 -1.13281,-1.46972 -0.30274,-0.20996 -1.41113,-0.45899 -1.73828,-0.61524 -0.32715,-0.15136 -1.24512,-0.78125 -1.59668,-0.8789 -0.35645,-0.1025 -1.38672,-0.62012 -1.7627,-0.65919 -0.38086,-0.039 -1.49414,0.33693 -1.86035,0.35645 -0.36621,0.0195 -1.51367,-0.22461 -1.88476,-0.1416 -0.3711,0.083 -1.38184,0.59083 -1.72852,0.73243 -0.3418,0.1416 -1.57227,-0.18555 -2.08496,0.13184 -0.5127,0.31737 -0.4834,1.90917 -0.75196,2.14843 -0.27343,0.23438 -1.54785,0.52245 -1.79199,0.82032 -0.24414,0.29785 -0.37597,1.54296 -0.55664,1.86035 -0.18066,0.3125 -1.14258,1.07421 -1.2793,1.43553 -0.13183,0.35645 0.1123,1.5625 0.0439,1.91895 -0.0732,0.35645 -0.38574,1.41114 -0.39062,1.78223 -0.01,0.36621 0.41016,1.4209 0.45898,1.77246 0.0488,0.35156 -1.46484,1.65528 -1.27929,2.25098 0.19043,0.59082 2.19726,0.78125 2.3584,1.09863 0.16113,0.31738 -0.70801,1.94824 -0.34668,2.4414 0.36621,0.49317 2.16796,0.15138 2.42675,0.39552 0.25391,0.24902 1.06446,0.92773 1.35743,1.13281 0.29296,0.2002 1.1914,0.77149 1.51367,0.92285 0.32226,0.15136 1.19141,0.92774 1.54785,1.02539 0.36133,0.1025 1.46973,0.13672 1.83594,0.17578"
       style="fill:#ff0000;fill-opacity:1;fill-rule:nonzero;stroke:#800000" />
    <text
       xml:space="preserve"
       style="font-size:36px;font-style:normal;font-weight:normal;text-align:center;line-height:125%;letter-spacing:0px;word-spacing:0px;text-anchor:middle;fill:#000000;fill-opacity:1;stroke:none;font-family:Sans"
       id="text2987"
       sodipodi:linespacing="125%"><textPath
         xlink:href="#path2990"
         startOffset="50%"
         id="textPath3761"><tspan
   id="tspan2989">Zomb - Craft</tspan></textPath></text>
    <path
       style="fill:#ff0000;stroke:none"
       d="m 165.875,-66.28125 7.25,33.53125 c 1.56194,-8.111524 2.48263,-5.117892 9.03125,-13.46875 1.67459,-2.135458 3.05337,-4.279233 4.21875,-6.40625 z m 6.15625,40.125 -5.783,0.472557 5.18925,7.82186 c 0.23022,-1.539576 0.40142,-7.042838 0.59375,-8.294417 z"
       id="path2999"
       inkscape:connector-curvature="0"
       sodipodi:nodetypes="ccscccccc" />
    <path
       style="fill:#aa0000;stroke:none"
       d="M 311.6875 107.03125 C 299.99789 118.38883 292.21063 135.88788 287.25 154.96875 L 343.84375 110.28125 L 311.6875 107.03125 z M 282.28125 179.3125 C 280.21617 187.82328 275.06569 193.34576 268.25 197.0625 L 300.6875 195.78125 L 282.28125 179.3125 z M 111.65625 188.65625 C 110.23332 188.66178 108.90685 188.79397 107.625 189.03125 L 120.90625 224.96875 L 134.5 194.1875 C 126.10434 190.9064 118.17927 188.63091 111.65625 188.65625 z M 209.03125 209.5625 C 205.33564 210.83741 202.35254 212.51539 200.5 214.9375 C 196.60484 220.03025 186.83342 217.49495 174.71875 212.375 L 215.53125 239.59375 L 209.03125 209.5625 z "
       id="path3006" />
    <path
       style="fill:#225500;stroke:#ff0000;stroke-width:1px;stroke-linecap:butt;stroke-linejoin:miter;stroke-opacity:1"
       d="m 229.46308,118.52256 c 0,0 5.55584,9.59645 7.57614,18.68783 2.02031,9.09137 2.01418,33.37471 6.95903,43.97753 l 3.50175,3.85283 -4.28571,-1.42857 0.35714,4.10714 -5,-1.25 -7.14286,-6.25 0.17857,6.42858 -3.75,0.89285 -4.46428,-2.85714 0.17857,6.07143 -3.92857,-1.07143 -0.35715,6.96429 -5.34955,3.13157 C 210.3054,198.97768 185.73495,179.6702 184.75114,170.8159 l 3.64172,-4.70372 -3.75,-1.96428 2.85714,-1.96429 -3.21429,-3.57143 2.75096,-2.71397 -11.11168,-14.14214 4.07501,0.42754 2.14286,-6.25 4.89381,-1.75368 9.59645,13.13198 c 0,0 -31.18775,-47.18303 -29.17803,-54.375826 0.49322,-1.765266 7.36254,-5.558337 9.26399,-4.027418 11.74249,9.454299 32.03587,49.311874 32.03587,49.311874 l -6.06091,-13.13198 3.19882,0.66648 -0.89286,-4.64286 3.92857,2.5 2.14286,-4.82143 3.03571,1.96429 1.71888,-2.73755 5.55584,12.62691 -4.04061,-9.59645 6.58732,-3.32863 2.32143,-8.75 10.89286,-0.89285 -1.42857,3.21428 2.85714,1.78572 -2.85714,3.57143 3.03571,1.25 z"
       id="path3011"
       inkscape:connector-curvature="0"
       sodipodi:nodetypes="csccccccccccccccccccccccccsscccccccccccccccccc" />
    <path
       style="color:#000000;fill:none;stroke:#000000;stroke-width:1;stroke-linecap:square;stroke-linejoin:miter;stroke-miterlimit:4;stroke-opacity:0;stroke-dashoffset:0;marker:none;visibility:visible;display:inline;overflow:visible;enable-background:accumulate"
       d="m 114.28571,102.36218 c 0,-42.210334 34.21823,-76.428572 76.42857,-76.428572 42.21033,0 76.42857,34.218238 76.42857,76.428572"
       id="path2990"
       inkscape:connector-curvature="0"
       sodipodi:nodetypes="csc" />
    <path
       style="fill:none;stroke:#000000;stroke-width:1px;stroke-linecap:butt;stroke-linejoin:miter;stroke-opacity:1"
       d="m 181.25,114.68361 c 3.48887,-4.21305 6.28181,-3.6973 7.32143,-4.82142"
       id="path3976"
       inkscape:connector-curvature="0"
       sodipodi:nodetypes="cc" />
    <path
       sodipodi:nodetypes="cc"
       inkscape:connector-curvature="0"
       id="path3978"
       d="m 183.92857,118.79075 c 3.48887,-4.21305 6.28181,-3.6973 7.32143,-4.82142"
       style="fill:none;stroke:#000000;stroke-width:1px;stroke-linecap:butt;stroke-linejoin:miter;stroke-opacity:1" />
    <path
       style="fill:#483737;fill-opacity:0.75565612;stroke:#000000;stroke-width:1px;stroke-linecap:butt;stroke-linejoin:miter;stroke-opacity:1"
       d="m 172.23215,100.84432 c 1.80092,0.6108 7.24419,-2.509199 8.39285,-4.017853 1.14867,-1.508653 -5.26785,-7.410714 -5.26785,-7.410714 l -1.07144,1.875 -3.57143,0.446428 -1.96428,-6.160714 c 0,0 -2.27555,0.889048 -2.58929,2.857143 -0.31373,1.968095 4.27052,11.79991 6.07144,12.41071 z"
       id="path3980"
       inkscape:connector-curvature="0"
       sodipodi:nodetypes="zzcccczz" />
    <path
       style="fill:#225500;stroke:#112b00;stroke-width:1px;stroke-linecap:butt;stroke-linejoin:miter;stroke-opacity:1"
       d="m 214.64286,131.38004 13.75,44.03571"
       id="path3984"
       inkscape:connector-curvature="0"
       sodipodi:nodetypes="cc" />
    <path
       style="fill:#225500;stroke:#112b00;stroke-width:1px;stroke-linecap:butt;stroke-linejoin:miter;stroke-opacity:1"
       d="m 228.10714,128.84432 2.80357,38.69643"
       id="path3986"
       inkscape:connector-curvature="0"
       sodipodi:nodetypes="cc" />
    <path
       style="fill:#225500;stroke:#112b00;stroke-width:1px;stroke-linecap:butt;stroke-linejoin:miter;stroke-opacity:1"
       d="m 202.64286,142.16575 23.125,34.71429"
       id="path3988"
       inkscape:connector-curvature="0"
       sodipodi:nodetypes="cc" />
    <path
       style="fill:#225500;stroke:#112b00;stroke-width:1px;stroke-linecap:butt;stroke-linejoin:miter;stroke-opacity:1"
       d="M 191.76786,151.80861 222.75,180.25504"
       id="path3990"
       inkscape:connector-curvature="0"
       sodipodi:nodetypes="cc" />
    <path
       style="fill:#e90000;fill-opacity:0.60633485;stroke:none"
       d="m 231.51786,158.61218 c -3.47492,-6.15147 -10.80079,-10.20735 -16.69643,-10.98214 2.31591,-0.65262 4.80759,-0.8142 8.92858,1.05357 -2.22039,-3.24197 -2.99419,-3.82927 -5.44644,-6.14285 7.95006,3.73459 14.25202,8.22983 19.10714,13.39285 -3.0872,-1.73565 -5.93379,-4.76269 -9.37499,-5.35714 2.2728,2.15019 2.45394,5.58594 3.48214,8.03571 z"
       id="path4000"
       inkscape:connector-curvature="0"
       sodipodi:nodetypes="ccccccc" />
    <path
       style="fill:#808000;stroke:#000000;stroke-width:1px;stroke-linecap:butt;stroke-linejoin:miter;stroke-opacity:1"
       d="m 267.28636,462.28157 0,4.77297 3.35876,-0.17677 0,-3.71231 2.65165,-3.18198 0,-2.82843 -4.24264,4.94975 z"
       id="path4052"
       inkscape:connector-curvature="0"
       inkscape:export-filename="C:\Users\Miaou\Documents\Projs\ZombCraft\FirstUI.png"
       inkscape:export-xdpi="360"
       inkscape:export-ydpi="360" />
    <rect
       style="color:#000000;fill:none;stroke:#000000;stroke-width:1;stroke-miterlimit:4;stroke-opacity:1;stroke-dasharray:none;marker:none;visibility:visible;display:inline;overflow:visible;enable-background:accumulate"
       id="rect4026"
       width="325"
       height="260"
       x="90"
       y="317.36218"
       inkscape:export-filename="C:\Users\Miaou\Documents\Projs\ZombCraft\FirstUI.png"
       inkscape:export-xdpi="360"
       inkscape:export-ydpi="360" />
    <path
       sodipodi:type="arc"
       style="color:#000000;fill:#ffffff;fill-opacity:1;fill-rule:evenodd;stroke:#000000;stroke-width:1;stroke-linecap:square;stroke-linejoin:miter;stroke-miterlimit:4;stroke-opacity:1;stroke-dasharray:none;stroke-dashoffset:0;marker:none;visibility:visible;display:inline;overflow:visible;enable-background:accumulate"
       id="path4028"
       sodipodi:cx="248.75"
       sodipodi:cy="454.86218"
       sodipodi:rx="6.75"
       sodipodi:ry="7.5"
       d="m 255.5,454.86218 a 6.75,7.5 0 1 1 -13.5,0 6.75,7.5 0 1 1 13.5,0 z"
       transform="translate(6.25,-2.5)"
       inkscape:export-filename="C:\Users\Miaou\Documents\Projs\ZombCraft\FirstUI.png"
       inkscape:export-xdpi="360"
       inkscape:export-ydpi="360" />
    <path
       style="fill:none;stroke:#000000;stroke-width:1px;stroke-linecap:butt;stroke-linejoin:miter;stroke-opacity:1"
       d="m 253.5606,460.13512 0.17677,4.41942 c 0,0 -2.65165,-1.59099 -4.41941,0 -1.76777,1.59099 -10.93273,8.76617 -9.01562,10.6066 2.20971,2.12132 11.49049,-12.28598 11.66727,-5.92202 0.17678,6.36396 -3.00521,36.32762 -1.94455,36.32762 1.06066,0 2.82843,3.35875 3.18198,-0.88389 0.35356,-4.24264 2.82843,-28.28427 3.71231,-22.27386 0.88389,6.01041 2.65165,24.74874 3.88909,24.04163 1.23744,-0.70711 2.82519,-0.70712 2.82842,-1.59099 0.003,-0.88353 -7.96711,-39.16778 -4.59619,-35.53212 0.95933,1.03467 2.24757,4.89055 3.95933,4.03467 2,-1 3.45047,-1.55348 4.7955,-3.29809 1.34502,-1.74462 1.64645,-4.77298 1.46967,-5.83364 -0.0834,-0.50027 -2.77486,6.27853 -5.23795,4.40036 -2.75905,-2.10386 -5.67684,-4.73166 -7.63819,-4.87176 l -0.35356,-3.97748"
       id="path4030"
       inkscape:connector-curvature="0"
       sodipodi:nodetypes="ccsssssssssszsscc"
       inkscape:export-filename="C:\Users\Miaou\Documents\Projs\ZombCraft\FirstUI.png"
       inkscape:export-xdpi="360"
       inkscape:export-ydpi="360" />
    <path
       transform="translate(74.5,-112.5)"
       d="m 255.5,454.86218 a 6.75,7.5 0 1 1 -13.5,0 6.75,7.5 0 1 1 13.5,0 z"
       sodipodi:ry="7.5"
       sodipodi:rx="6.75"
       sodipodi:cy="454.86218"
       sodipodi:cx="248.75"
       id="path4032"
       style="color:#000000;fill:#225500;fill-opacity:1;fill-rule:evenodd;stroke:#000000;stroke-width:1;stroke-linecap:square;stroke-linejoin:miter;stroke-miterlimit:4;stroke-opacity:1;stroke-dasharray:none;stroke-dashoffset:0;marker:none;visibility:visible;display:inline;overflow:visible;enable-background:accumulate"
       sodipodi:type="arc"
       inkscape:export-filename="C:\Users\Miaou\Documents\Projs\ZombCraft\FirstUI.png"
       inkscape:export-xdpi="360"
       inkscape:export-ydpi="360" />
    <path
       sodipodi:nodetypes="ccssssssssscscc"
       inkscape:connector-curvature="0"
       id="path4034"
       d="m 321.8106,350.13512 0.17677,4.41942 c 0,0 -2.65165,-1.59099 -4.41941,0 -1.76777,1.59099 -10.93273,8.76617 -9.01562,10.6066 2.20971,2.12132 11.49049,-12.28598 11.66727,-5.92202 0.17678,6.36396 -3.00521,36.32762 -1.94455,36.32762 1.06066,0 2.82843,3.35875 3.18198,-0.88389 0.35356,-4.24264 2.82843,-28.28427 3.71231,-22.27386 0.88389,6.01041 2.65165,24.74874 3.88909,24.04163 1.23744,-0.70711 2.82519,-0.70712 2.82842,-1.59099 0.003,-0.88353 -6.89093,-39.92703 -4.59619,-35.53212 1.8611,3.5644 6.40795,5.21535 8.3969,5.83363 1.87124,-0.30219 0.70711,-1.23744 0.53033,-2.2981 -0.17678,-1.06066 -7.86656,-8.83882 -11.57887,-9.10399 l -0.35356,-3.97748"
       style="fill:#225500;stroke:#000000;stroke-width:1px;stroke-linecap:butt;stroke-linejoin:miter;stroke-opacity:1"
       inkscape:export-filename="C:\Users\Miaou\Documents\Projs\ZombCraft\FirstUI.png"
       inkscape:export-xdpi="360"
       inkscape:export-ydpi="360" />
    <path
       sodipodi:type="arc"
       style="color:#000000;fill:#225500;fill-opacity:1;fill-rule:evenodd;stroke:#000000;stroke-width:1;stroke-linecap:square;stroke-linejoin:miter;stroke-miterlimit:4;stroke-opacity:1;stroke-dasharray:none;stroke-dashoffset:0;marker:none;visibility:visible;display:inline;overflow:visible;enable-background:accumulate"
       id="path4036"
       sodipodi:cx="248.75"
       sodipodi:cy="454.86218"
       sodipodi:rx="6.75"
       sodipodi:ry="7.5"
       d="m 255.5,454.86218 a 6.75,7.5 0 1 1 -13.5,0 6.75,7.5 0 1 1 13.5,0 z"
       transform="translate(41.25,-117.5)"
       inkscape:export-filename="C:\Users\Miaou\Documents\Projs\ZombCraft\FirstUI.png"
       inkscape:export-xdpi="360"
       inkscape:export-ydpi="360" />
    <path
       style="fill:#225500;stroke:#000000;stroke-width:1px;stroke-linecap:butt;stroke-linejoin:miter;stroke-opacity:1"
       d="m 288.5606,345.13512 0.17677,4.41942 c 0,0 -2.65165,-1.59099 -4.41941,0 -1.76777,1.59099 -10.93273,8.76617 -9.01562,10.6066 2.20971,2.12132 11.49049,-12.28598 11.66727,-5.92202 0.17678,6.36396 -3.00521,36.32762 -1.94455,36.32762 1.06066,0 2.82843,3.35875 3.18198,-0.88389 0.35356,-4.24264 2.82843,-28.28427 3.71231,-22.27386 0.88389,6.01041 2.65165,24.74874 3.88909,24.04163 1.23744,-0.70711 2.82519,-0.70712 2.82842,-1.59099 0.003,-0.88353 -6.89093,-39.92703 -4.59619,-35.53212 1.8611,3.5644 6.40795,5.21535 8.3969,5.83363 1.87124,-0.30219 0.70711,-1.23744 0.53033,-2.2981 -0.17678,-1.06066 -7.86656,-8.83882 -11.57887,-9.10399 l -0.35356,-3.97748"
       id="path4038"
       inkscape:connector-curvature="0"
       sodipodi:nodetypes="ccssssssssscscc"
       inkscape:export-filename="C:\Users\Miaou\Documents\Projs\ZombCraft\FirstUI.png"
       inkscape:export-xdpi="360"
       inkscape:export-ydpi="360" />
    <path
       transform="translate(-37,-112.5)"
       d="m 255.5,454.86218 a 6.75,7.5 0 1 1 -13.5,0 6.75,7.5 0 1 1 13.5,0 z"
       sodipodi:ry="7.5"
       sodipodi:rx="6.75"
       sodipodi:cy="454.86218"
       sodipodi:cx="248.75"
       id="path4040"
       style="color:#000000;fill:#225500;fill-opacity:1;fill-rule:evenodd;stroke:#000000;stroke-width:1;stroke-linecap:square;stroke-linejoin:miter;stroke-miterlimit:4;stroke-opacity:1;stroke-dasharray:none;stroke-dashoffset:0;marker:none;visibility:visible;display:inline;overflow:visible;enable-background:accumulate"
       sodipodi:type="arc"
       inkscape:export-filename="C:\Users\Miaou\Documents\Projs\ZombCraft\FirstUI.png"
       inkscape:export-xdpi="360"
       inkscape:export-ydpi="360" />
    <path
       sodipodi:nodetypes="ccssssssssscscc"
       inkscape:connector-curvature="0"
       id="path4042"
       d="m 210.3106,350.13512 0.17677,4.41942 c 0,0 -2.65165,-1.59099 -4.41941,0 -1.76777,1.59099 -10.93273,8.76617 -9.01562,10.6066 2.20971,2.12132 11.49049,-12.28598 11.66727,-5.92202 0.17678,6.36396 -3.00521,36.32762 -1.94455,36.32762 1.06066,0 2.82843,3.35875 3.18198,-0.88389 0.35356,-4.24264 2.82843,-28.28427 3.71231,-22.27386 0.88389,6.01041 2.65165,24.74874 3.88909,24.04163 1.23744,-0.70711 2.82519,-0.70712 2.82842,-1.59099 0.003,-0.88353 -6.89093,-39.92703 -4.59619,-35.53212 1.8611,3.5644 6.40795,5.21535 8.3969,5.83363 1.87124,-0.30219 0.70711,-1.23744 0.53033,-2.2981 -0.17678,-1.06066 -7.86656,-8.83882 -11.57887,-9.10399 l -0.35356,-3.97748"
       style="fill:#225500;stroke:#000000;stroke-width:1px;stroke-linecap:butt;stroke-linejoin:miter;stroke-opacity:1"
       inkscape:export-filename="C:\Users\Miaou\Documents\Projs\ZombCraft\FirstUI.png"
       inkscape:export-xdpi="360"
       inkscape:export-ydpi="360" />
    <path
       sodipodi:type="arc"
       style="color:#000000;fill:#225500;fill-opacity:1;fill-rule:evenodd;stroke:#000000;stroke-width:1;stroke-linecap:square;stroke-linejoin:miter;stroke-miterlimit:4;stroke-opacity:1;stroke-dasharray:none;stroke-dashoffset:0;marker:none;visibility:visible;display:inline;overflow:visible;enable-background:accumulate"
       id="path4044"
       sodipodi:cx="248.75"
       sodipodi:cy="454.86218"
       sodipodi:rx="6.75"
       sodipodi:ry="7.5"
       d="m 255.5,454.86218 a 6.75,7.5 0 1 1 -13.5,0 6.75,7.5 0 1 1 13.5,0 z"
       transform="translate(6.25,-117.5)"
       inkscape:export-filename="C:\Users\Miaou\Documents\Projs\ZombCraft\FirstUI.png"
       inkscape:export-xdpi="360"
       inkscape:export-ydpi="360" />
    <path
       style="fill:#225500;stroke:#000000;stroke-width:1px;stroke-linecap:butt;stroke-linejoin:miter;stroke-opacity:1"
       d="m 253.5606,345.13512 0.17677,4.41942 c 0,0 -2.65165,-1.59099 -4.41941,0 -1.76777,1.59099 -10.93273,8.76617 -9.01562,10.6066 2.20971,2.12132 11.49049,-12.28598 11.66727,-5.92202 0.17678,6.36396 -3.00521,36.32762 -1.94455,36.32762 1.06066,0 2.82843,3.35875 3.18198,-0.88389 0.35356,-4.24264 2.82843,-28.28427 3.71231,-22.27386 0.88389,6.01041 2.65165,24.74874 3.88909,24.04163 1.23744,-0.70711 2.82519,-0.70712 2.82842,-1.59099 0.003,-0.88353 -6.89093,-39.92703 -4.59619,-35.53212 1.8611,3.5644 6.40795,5.21535 8.3969,5.83363 1.87124,-0.30219 0.70711,-1.23744 0.53033,-2.2981 -0.17678,-1.06066 -7.86656,-8.83882 -11.57887,-9.10399 l -0.35356,-3.97748"
       id="path4046"
       inkscape:connector-curvature="0"
       sodipodi:nodetypes="ccssssssssscscc"
       inkscape:export-filename="C:\Users\Miaou\Documents\Projs\ZombCraft\FirstUI.png"
       inkscape:export-xdpi="360"
       inkscape:export-ydpi="360" />
    <path
       transform="translate(111.25,-27.5)"
       d="m 255.5,454.86218 a 6.75,7.5 0 1 1 -13.5,0 6.75,7.5 0 1 1 13.5,0 z"
       sodipodi:ry="7.5"
       sodipodi:rx="6.75"
       sodipodi:cy="454.86218"
       sodipodi:cx="248.75"
       id="path4048"
       style="color:#000000;fill:#225500;fill-opacity:1;fill-rule:evenodd;stroke:#000000;stroke-width:1;stroke-linecap:square;stroke-linejoin:miter;stroke-miterlimit:4;stroke-opacity:1;stroke-dasharray:none;stroke-dashoffset:0;marker:none;visibility:visible;display:inline;overflow:visible;enable-background:accumulate"
       sodipodi:type="arc"
       inkscape:export-filename="C:\Users\Miaou\Documents\Projs\ZombCraft\FirstUI.png"
       inkscape:export-xdpi="360"
       inkscape:export-ydpi="360" />
    <path
       sodipodi:nodetypes="ccssssssssscscc"
       inkscape:connector-curvature="0"
       id="path4050"
       d="m 358.5606,435.13512 0.17677,4.41942 c 0,0 -2.65165,-1.59099 -4.41941,0 -1.76777,1.59099 -10.93273,8.76617 -9.01562,10.6066 2.20971,2.12132 11.49049,-12.28598 11.66727,-5.92202 0.17678,6.36396 -3.00521,36.32762 -1.94455,36.32762 1.06066,0 2.82843,3.35875 3.18198,-0.88389 0.35356,-4.24264 2.82843,-28.28427 3.71231,-22.27386 0.88389,6.01041 2.65165,24.74874 3.88909,24.04163 1.23744,-0.70711 2.82519,-0.70712 2.82842,-1.59099 0.003,-0.88353 -6.89093,-39.92703 -4.59619,-35.53212 1.8611,3.5644 6.40795,5.21535 8.3969,5.83363 1.87124,-0.30219 0.70711,-1.23744 0.53033,-2.2981 -0.17678,-1.06066 -7.86656,-8.83882 -11.57887,-9.10399 l -0.35356,-3.97748"
       style="fill:#225500;stroke:#000000;stroke-width:1px;stroke-linecap:butt;stroke-linejoin:miter;stroke-opacity:1"
       inkscape:export-filename="C:\Users\Miaou\Documents\Projs\ZombCraft\FirstUI.png"
       inkscape:export-xdpi="360"
       inkscape:export-ydpi="360" />
    <path
       style="color:#000000;fill:#ff0000;fill-opacity:1;fill-rule:evenodd;stroke:none;stroke-width:1;marker:none;visibility:visible;display:inline;overflow:visible;enable-background:accumulate"
       d="m 342.78286,346.74046 c 1.26433,1.22496 3.05004,5.19968 -1.17725,9.56285 -1.56414,1.61442 -6.27931,0.25221 -7.75589,1.28584 -2.51406,1.75989 -3.1375,2.57351 -6.37523,4.95175 1.89453,-3.05928 -0.69285,-6.43881 0.61621,-9.15094 0.92669,-1.91995 4.15556,-0.94279 5.90772,-2.75127 2.04951,-2.11539 2.46515,-5.32836 3.95067,-5.93427 1.5785,-0.64381 4.18243,1.40498 4.83377,2.03604 z"
       id="path4078"
       inkscape:connector-curvature="0"
       sodipodi:nodetypes="ssscssss"
       inkscape:export-filename="C:\Users\Miaou\Documents\Projs\ZombCraft\FirstUI.png"
       inkscape:export-xdpi="360"
       inkscape:export-ydpi="360" />
    <g
       id="g4068"
       transform="translate(-20.25,-12.5)"
       inkscape:export-filename="C:\Users\Miaou\Documents\Projs\ZombCraft\FirstUI.png"
       inkscape:export-xdpi="360"
       inkscape:export-ydpi="360">
      <path
         transform="translate(14,-24.25)"
         d="m 367.5,375.36218 c 0,8.00813 -6.49187,14.5 -14.5,14.5 -8.00813,0 -14.5,-6.49187 -14.5,-14.5 0,-8.00813 6.49187,-14.5 14.5,-14.5 8.00813,0 14.5,6.49187 14.5,14.5 z"
         sodipodi:ry="14.5"
         sodipodi:rx="14.5"
         sodipodi:cy="375.36218"
         sodipodi:cx="353"
         id="path4056"
         style="color:#000000;fill:none;stroke:#000000;stroke-width:1;stroke-linecap:square;stroke-linejoin:miter;stroke-miterlimit:4;stroke-opacity:1;stroke-dasharray:none;stroke-dashoffset:0;marker:none;visibility:visible;display:inline;overflow:visible;enable-background:accumulate"
         sodipodi:type="arc" />
      <path
         d="m 368.25,351.11218 c 0,0.69036 -0.55964,1.25 -1.25,1.25 -0.69036,0 -1.25,-0.55964 -1.25,-1.25 0,-0.69035 0.55964,-1.25 1.25,-1.25 0.69036,0 1.25,0.55965 1.25,1.25 z"
         sodipodi:ry="1.2500004"
         sodipodi:rx="1.2500004"
         sodipodi:cy="351.11218"
         sodipodi:cx="367"
         id="path4058"
         style="color:#000000;fill:#000000;stroke:none;stroke-width:1;marker:none;visibility:visible;display:inline;overflow:visible;enable-background:accumulate"
         sodipodi:type="arc" />
      <path
         inkscape:connector-curvature="0"
         id="path4060"
         d="m 377.41824,351.26581 8.66206,0"
         style="fill:none;stroke:#000000;stroke-width:1px;stroke-linecap:butt;stroke-linejoin:miter;stroke-opacity:1" />
      <path
         inkscape:connector-curvature="0"
         id="path4062"
         d="m 366.56164,332.70426 0.17678,7.07106"
         style="fill:none;stroke:#000000;stroke-width:1px;stroke-linecap:butt;stroke-linejoin:miter;stroke-opacity:1" />
      <path
         inkscape:connector-curvature="0"
         id="path4064"
         d="m 356.20504,350.91225 -7.77817,0"
         style="fill:none;stroke:#000000;stroke-width:1px;stroke-linecap:butt;stroke-linejoin:miter;stroke-opacity:1" />
      <path
         inkscape:connector-curvature="0"
         id="path4066"
         d="m 367.2473,362.52774 0.17678,6.89429"
         style="fill:none;stroke:#000000;stroke-width:1px;stroke-linecap:butt;stroke-linejoin:miter;stroke-opacity:1" />
    </g>
    <path
       sodipodi:type="arc"
       style="color:#000000;fill:#ff0000;fill-opacity:1;fill-rule:evenodd;stroke:none;stroke-width:1;marker:none;visibility:visible;display:inline;overflow:visible;enable-background:accumulate"
       id="path4076"
       sodipodi:cx="325.5"
       sodipodi:cy="365.23718"
       sodipodi:rx="1.25"
       sodipodi:ry="1.875"
       d="m 326.75,365.23718 a 1.25,1.875 0 1 1 -2.5,0 1.25,1.875 0 1 1 2.5,0 z"
       inkscape:export-filename="C:\Users\Miaou\Documents\Projs\ZombCraft\FirstUI.png"
       inkscape:export-xdpi="360"
       inkscape:export-ydpi="360" />
    <path
       style="font-size:medium;font-style:normal;font-variant:normal;font-weight:normal;font-stretch:normal;text-indent:0;text-align:start;text-decoration:none;line-height:normal;letter-spacing:normal;word-spacing:normal;text-transform:none;direction:ltr;block-progression:tb;writing-mode:lr-tb;text-anchor:start;baseline-shift:baseline;color:#000000;fill:#ff8080;fill-opacity:1;fill-rule:nonzero;stroke:none;stroke-width:1px;marker:none;visibility:visible;display:inline;overflow:visible;enable-background:accumulate;font-family:Sans;-inkscape-font-specification:Sans"
       d="M 218.3125 142.53125 C 218.50647 142.71426 218.63798 142.83643 218.8125 143 L 218.71875 142.71875 C 218.58264 142.6539 218.44959 142.59565 218.3125 142.53125 z M 219.0625 147.28125 L 219.5625 148.875 C 219.97449 149.03127 220.37012 149.19346 220.78125 149.375 L 220.1875 147.4375 C 219.80053 147.3526 219.41849 147.3245 219.0625 147.28125 z "
       id="path4081" />
    <path
       style="font-size:medium;font-style:normal;font-variant:normal;font-weight:normal;font-stretch:normal;text-indent:0;text-align:start;text-decoration:none;line-height:normal;letter-spacing:normal;word-spacing:normal;text-transform:none;direction:ltr;block-progression:tb;writing-mode:lr-tb;text-anchor:start;baseline-shift:baseline;color:#000000;fill:#ff8080;fill-opacity:1;fill-rule:nonzero;stroke:none;stroke-width:1px;marker:none;visibility:visible;display:inline;overflow:visible;enable-background:accumulate;font-family:Sans;-inkscape-font-specification:Sans"
       d="M 229.03125 148.6875 L 229.1875 150.875 C 229.53717 150.99044 229.87922 151.12545 230.21875 151.28125 L 230.09375 149.5 C 229.73248 149.23336 229.40308 148.94927 229.03125 148.6875 z M 229.28125 152.21875 L 229.5625 155.8125 C 229.95246 156.27692 230.3132 156.7531 230.65625 157.25 L 230.53125 155.4375 C 230.21678 154.32639 229.85316 153.22997 229.28125 152.21875 z "
       id="path4087" />
    <path
       inkscape:connector-curvature="0"
       id="path4011"
       d="m 131.0854,147.66108 c 0.16113,-0.0146 0.42969,-0.0146 0.56641,-0.0976 0.13672,-0.083 0.23437,-0.3418 0.32226,-0.47852 0.0879,-0.13183 0.41016,-0.30762 0.42969,-0.46875 0.0195,-0.15625 -0.14648,-0.44433 -0.20019,-0.59571 -0.0488,-0.15136 -0.0293,-0.5371 -0.14161,-0.64941 -0.10742,-0.11713 -0.55175,0.0489 -0.70312,-0.005 -0.14649,-0.0538 -0.34668,-0.15138 -0.50781,-0.13673 -0.15625,0.0195 -0.42481,0 -0.56153,0.083 -0.13672,0.083 -0.39062,0.22949 -0.47851,0.36622 -0.0879,0.13183 -0.10743,0.42968 -0.13184,0.58593 -0.0195,0.16113 -0.13183,0.46875 -0.083,0.62012 0.0488,0.15625 0.40039,0.26855 0.50781,0.38086 0.1123,0.11712 0.25879,0.34667 0.41016,0.40039 0.15137,0.0538 0.41504,0.01 0.57129,-0.005"
       style="fill:#ff0000;fill-opacity:1;fill-rule:nonzero;stroke:#800000" />
    <path
       inkscape:connector-curvature="0"
       id="path4013"
       d="m 138.83638,144.22358 c -0.0537,0.16602 -0.15625,0.77637 -0.10254,0.94238 0.0537,0.16602 0.49805,0.60548 0.63965,0.70802 0.1416,0.0976 0.69824,0.32715 0.87402,0.32715 0.1709,0 0.59571,-0.41993 0.73242,-0.52247 0.14161,-0.1025 0.58594,-0.41016 0.63965,-0.57617 0.0537,-0.16601 0.0928,-0.74708 0.0391,-0.91309 -0.0586,-0.16114 -0.33203,-0.75195 -0.47363,-0.85449 -0.1416,-0.1025 -0.78613,0.0341 -0.96192,0.0341 -0.17089,0.005 -0.63476,0.13184 -0.77148,0.23438 -0.1416,0.1025 -0.56641,0.4541 -0.61523,0.62011"
       style="fill:#ff0000;fill-opacity:1;fill-rule:nonzero;stroke:#800000" />
    <path
       inkscape:connector-curvature="0"
       id="path4021"
       d="m 134.74263,141.70698 c 0.11719,-0.17578 0.39551,-0.50782 0.41015,-0.71778 0.0146,-0.20995 -0.1123,-0.62987 -0.20507,-0.82031 -0.0928,-0.18554 -0.28809,-0.63964 -0.46387,-0.75683 -0.17578,-0.11712 -0.6543,-0.3125 -0.86426,-0.32715 -0.20996,-0.0146 -0.80566,-0.0635 -0.99121,0.0292 -0.19043,0.0927 -0.41504,0.66407 -0.52734,0.83497 -0.11719,0.17578 -0.61524,0.60058 -0.625,0.81055 -0.0147,0.20996 0.57129,0.61523 0.66406,0.80566 0.0928,0.18555 0.0732,0.88379 0.24902,1.00097 0.17578,0.11713 0.81055,-0.18066 1.02051,-0.16601 0.20996,0.0146 0.76172,0.30274 0.95215,0.20996 0.18555,-0.0976 0.26367,-0.72753 0.38086,-0.90332"
       style="fill:#ff0000;fill-opacity:1;fill-rule:nonzero;stroke:#800000" />
    <path
       inkscape:connector-curvature="0"
       id="path8175"
       d="m 119.78267,138.71381 c 0.12207,-0.0146 0.41015,-0.1025 0.51269,-0.17577 0.10254,-0.0733 0.30762,-0.30763 0.36133,-0.41993 0.0488,-0.11225 0.15625,-0.4248 0.1416,-0.55176 -0.01,-0.122 -0.32226,-0.30272 -0.39551,-0.40527 -0.0732,-0.1025 -0.083,-0.58105 -0.19531,-0.62988 -0.11719,-0.0538 -0.49805,0.083 -0.625,0.0927 -0.12695,0.0146 -0.46875,0.0292 -0.57129,0.1025 -0.10254,0.0733 -0.11719,0.44921 -0.1709,0.56153 -0.0537,0.11225 -0.33203,0.37108 -0.32226,0.49316 0.0146,0.12695 0.20996,0.41504 0.27832,0.51757 0.0732,0.1025 0.36133,0.21973 0.47363,0.26855 0.11719,0.0538 0.38574,0.15625 0.5127,0.14649"
       style="fill:#ff0000;fill-opacity:1;fill-rule:nonzero;stroke:#800000" />
    <path
       inkscape:connector-curvature="0"
       id="path8177"
       d="m 116.12251,122.37885 c -0.0293,-0.13671 -0.01,-0.54199 -0.10254,-0.64452 -0.0928,-0.10738 -0.46387,-0.23927 -0.5957,-0.2832 -0.13184,-0.044 -0.52246,-0.24903 -0.65918,-0.22462 -0.13672,0.0292 -0.32227,0.47852 -0.42969,0.57129 -0.10742,0.0928 -0.33203,0.29785 -0.37598,0.42969 -0.0488,0.13184 -0.10253,0.4541 -0.0781,0.59082 0.0293,0.1416 0.23437,0.39063 0.32715,0.49317 0.0928,0.10737 0.37109,0.1709 0.50293,0.21483 0.13183,0.0489 0.43945,0.40039 0.57617,0.3711 0.13672,-0.0244 0.38574,-0.35645 0.48828,-0.44922 0.10743,-0.0927 0.34668,-0.33203 0.39063,-0.46386 0.0439,-0.13184 -0.0195,-0.46388 -0.0439,-0.60548"
       style="fill:#ff0000;fill-opacity:1;fill-rule:nonzero;stroke:#800000" />
    <path
       inkscape:connector-curvature="0"
       id="path8179"
       d="m 122.22407,128.123 c 0.20996,-0.0976 0.77149,-0.22461 0.90332,-0.41016 0.13672,-0.19043 0.35645,-0.7373 0.37598,-0.9668 0.0195,-0.22949 -0.005,-0.8496 -0.10254,-1.05956 -0.0977,-0.20997 -0.68359,-0.44923 -0.86914,-0.58107 -0.19043,-0.13183 -0.625,-0.44921 -0.85449,-0.46875 -0.22949,-0.0195 -0.78125,0.0684 -0.99121,0.16114 -0.20996,0.0976 -0.83985,0.31739 -0.97656,0.50293 -0.13184,0.19043 -0.2002,0.84961 -0.22461,1.08398 -0.0195,0.22949 -0.0781,0.89355 0.0195,1.10352 0.0977,0.20996 0.74707,0.4541 0.9375,0.58593 0.18555,0.13184 0.64942,0.49805 0.87891,0.51759 0.22949,0.0244 0.69336,-0.3711 0.90332,-0.46875"
       style="fill:#ff0000;fill-opacity:1;fill-rule:nonzero;stroke:#800000" />
    <path
       inkscape:connector-curvature="0"
       id="path8181"
       d="m 139.08052,137.32905 c -0.25879,0.26368 -0.85449,0.72754 -0.97168,1.0791 -0.11719,0.35645 0.4541,1.03516 0.50293,1.40625 0.0439,0.36621 -0.40527,1.2207 -0.20508,1.5332 0.20508,0.30763 0.92774,0.63478 1.24512,0.83009 0.31738,0.19042 0.91797,0.93261 1.28906,0.97167 0.36621,0.0341 1.01074,-0.81542 1.36231,-0.94238 0.34667,-0.13184 0.95703,-0.32227 1.21582,-0.58594 0.25878,-0.26855 0.16601,-0.97168 0.2832,-1.32324 0.11719,-0.35645 0.86914,-0.89355 0.82031,-1.26465 -0.0488,-0.36621 -0.7959,-0.77636 -1.00098,-1.08399 -0.20507,-0.3125 -0.19531,-1.28906 -0.51757,-1.47948 -0.31739,-0.19043 -1.17188,0.19531 -1.53809,0.16113 -0.37109,-0.0342 -1.0791,-0.42481 -1.42578,-0.29786 -0.35156,0.13184 -0.80078,0.72755 -1.05957,0.9961"
       style="fill:#ff0000;fill-opacity:1;fill-rule:nonzero;stroke:#800000" />
    <path
       inkscape:connector-curvature="0"
       id="path8183"
       d="m 125.56782,139.15131 c -0.19043,-0.2832 -0.78125,-0.70312 -1.08886,-0.85448 -0.30762,-0.14649 -1.02051,-0.48829 -1.35743,-0.46388 -0.34179,0.0244 -1.02539,0.42481 -1.30859,0.61524 -0.2832,0.19531 -0.76172,0.75684 -0.9082,1.06445 -0.14649,0.30762 -0.29297,1.03027 -0.26856,1.37207 0.0293,0.3418 0.35645,0.98145 0.55176,1.26465 0.19531,0.2832 0.49316,1.1914 0.80078,1.33789 0.30762,0.14649 1.21094,-0.122 1.55274,-0.15136 0.34179,-0.0244 1.14257,-0.083 1.42578,-0.27833 0.2832,-0.19042 0.88867,-0.7959 1.03515,-1.10351 0.14649,-0.30761 0.58106,-1.18164 0.55176,-1.52344 -0.0244,-0.3418 -0.79102,-0.9961 -0.98633,-1.2793"
       style="fill:#ff0000;fill-opacity:1;fill-rule:nonzero;stroke:#800000" />
    <path
       inkscape:connector-curvature="0"
       id="path8185"
       d="m 113.58442,130.8476 c 0.0977,0.35156 0.1123,1.26954 0.37598,1.52833 0.25879,0.25878 1.06934,0.67382 1.4209,0.7666 0.35644,0.0928 1.35254,0.43945 1.7041,0.3418 0.35645,-0.0976 1.04492,-0.89357 1.30371,-1.15235 0.25391,-0.25879 0.63965,-1.06445 0.73242,-1.4209 0.0928,-0.35157 -0.0147,-1.19629 -0.1123,-1.55273 -0.0928,-0.35156 -0.3955,-1.17187 -0.65429,-1.43066 -0.25879,-0.2588 -1.02051,-0.79103 -1.37696,-0.8838 -0.35156,-0.0928 -1.23535,0.15137 -1.59179,0.24902 -0.35157,0.0976 -1.2793,0.29298 -1.53809,0.55177 -0.25879,0.26367 -0.30273,1.23046 -0.39551,1.58202 -0.0928,0.35645 0.0342,1.06934 0.13184,1.4209"
       style="fill:#ff0000;fill-opacity:1;fill-rule:nonzero;stroke:#800000" />
    <path
       style="fill:#ff0000;fill-opacity:1;fill-rule:nonzero;stroke:#800000"
       d="m 216.08052,100.57905 c -0.25879,0.26368 -0.85449,0.72754 -0.97168,1.0791 -0.11719,0.35645 0.4541,1.03516 0.50293,1.40625 0.0439,0.36621 -0.40527,1.2207 -0.20508,1.5332 0.20508,0.30763 0.92774,0.63478 1.24512,0.83009 0.31738,0.19042 0.91797,0.93261 1.28906,0.97167 0.36621,0.0341 1.01074,-0.81542 1.36231,-0.94238 0.34667,-0.13184 0.95703,-0.32227 1.21582,-0.58594 0.25878,-0.26855 0.16601,-0.97168 0.2832,-1.32324 0.11719,-0.35645 0.86914,-0.89355 0.82031,-1.26465 -0.0488,-0.36621 -0.7959,-0.77636 -1.00098,-1.08399 -0.20507,-0.3125 -0.19531,-1.28906 -0.51757,-1.47948 -0.31739,-0.19043 -1.17188,0.19531 -1.53809,0.16113 -0.37109,-0.0342 -1.0791,-0.42481 -1.42578,-0.29786 -0.35156,0.13184 -0.80078,0.72755 -1.05957,0.9961"
       id="path4134"
       inkscape:connector-curvature="0" />
    <path
       style="fill:#ff0000;fill-opacity:1;fill-rule:nonzero;stroke:#800000"
       d="m 175.37251,184.62885 c -0.0293,-0.13671 -0.01,-0.54199 -0.10254,-0.64452 -0.0928,-0.10738 -0.46387,-0.23927 -0.5957,-0.2832 -0.13184,-0.044 -0.52246,-0.24903 -0.65918,-0.22462 -0.13672,0.0292 -0.32227,0.47852 -0.42969,0.57129 -0.10742,0.0928 -0.33203,0.29785 -0.37598,0.42969 -0.0488,0.13184 -0.10253,0.4541 -0.0781,0.59082 0.0293,0.1416 0.23437,0.39063 0.32715,0.49317 0.0928,0.10737 0.37109,0.1709 0.50293,0.21483 0.13183,0.0489 0.43945,0.40039 0.57617,0.3711 0.13672,-0.0244 0.38574,-0.35645 0.48828,-0.44922 0.10743,-0.0927 0.34668,-0.33203 0.39063,-0.46386 0.0439,-0.13184 -0.0195,-0.46388 -0.0439,-0.60548"
       id="path4136"
       inkscape:connector-curvature="0" />
    <path
       style="fill:#ff0000;fill-opacity:1;fill-rule:nonzero;stroke:#800000"
       d="m 250.83442,172.8476 c 0.0977,0.35156 0.1123,1.26954 0.37598,1.52833 0.25879,0.25878 1.06934,0.67382 1.4209,0.7666 0.35644,0.0928 1.35254,0.43945 1.7041,0.3418 0.35645,-0.0976 1.04492,-0.89357 1.30371,-1.15235 0.25391,-0.25879 0.63965,-1.06445 0.73242,-1.4209 0.0928,-0.35157 -0.0147,-1.19629 -0.1123,-1.55273 -0.0928,-0.35156 -0.3955,-1.17187 -0.65429,-1.43066 -0.25879,-0.2588 -1.02051,-0.79103 -1.37696,-0.8838 -0.35156,-0.0928 -1.23535,0.15137 -1.59179,0.24902 -0.35157,0.0976 -1.2793,0.29298 -1.53809,0.55177 -0.25879,0.26367 -0.30273,1.23046 -0.39551,1.58202 -0.0928,0.35645 0.0342,1.06934 0.13184,1.4209"
       id="path4138"
       inkscape:connector-curvature="0" />
  </g>
</svg>
