<?xml version="1.0" encoding="UTF-8" standalone="no"?>
<!-- Created with Inkscape (http://www.inkscape.org/) -->

<svg
   xmlns:dc="http://purl.org/dc/elements/1.1/"
   xmlns:cc="http://creativecommons.org/ns#"
   xmlns:rdf="http://www.w3.org/1999/02/22-rdf-syntax-ns#"
   xmlns:svg="http://www.w3.org/2000/svg"
   xmlns="http://www.w3.org/2000/svg"
   xmlns:xlink="http://www.w3.org/1999/xlink"
   xmlns:sodipodi="http://sodipodi.sourceforge.net/DTD/sodipodi-0.dtd"
   xmlns:inkscape="http://www.inkscape.org/namespaces/inkscape"
   sodipodi:docname="Firsts.svg"
   inkscape:version="0.48.0 r9654"
   version="1.1"
   id="svg2"
   height="297mm"
   width="210mm">
  <defs
     id="defs4">
    <linearGradient
       id="linearGradient3962">
      <stop
         id="stop3964"
         offset="0"
         style="stop-color:#969696;stop-opacity:0;" />
      <stop
         style="stop-color:#b0b0b0;stop-opacity:0;"
         offset="0.26988763"
         id="stop3966" />
      <stop
         style="stop-color:#f8ff29;stop-opacity:0.52459013;"
         offset="0.47434276"
         id="stop3968" />
      <stop
         id="stop3970"
         offset="0.61197346"
         style="stop-color:#764600;stop-opacity:0.51639342;" />
      <stop
         style="stop-color:#ffb693;stop-opacity:0.68032789;"
         offset="0.70017713"
         id="stop3972" />
      <stop
         id="stop3974"
         offset="1"
         style="stop-color:#949494;stop-opacity:0;" />
    </linearGradient>
    <linearGradient
       id="linearGradient3874">
      <stop
         style="stop-color:#969696;stop-opacity:0;"
         offset="0"
         id="stop3876" />
      <stop
         id="stop3888"
         offset="0.26988763"
         style="stop-color:#b0b0b0;stop-opacity:0;" />
      <stop
         id="stop3882"
         offset="0.47434276"
         style="stop-color:#949494;stop-opacity:1" />
      <stop
         style="stop-color:#ffffff;stop-opacity:1;"
         offset="0.61197346"
         id="stop3884" />
      <stop
         id="stop3886"
         offset="0.70017713"
         style="stop-color:#c9c9c9;stop-opacity:0.57377046;" />
      <stop
         style="stop-color:#949494;stop-opacity:0;"
         offset="1"
         id="stop3878" />
    </linearGradient>
    <linearGradient
       inkscape:collect="always"
       xlink:href="#linearGradient3874-4"
       id="linearGradient3880-8"
       x1="323.37628"
       y1="97.40062"
       x2="-103.71119"
       y2="8.9522629"
       gradientUnits="userSpaceOnUse" />
    <linearGradient
       id="linearGradient3874-4">
      <stop
         style="stop-color:#969696;stop-opacity:0;"
         offset="0"
         id="stop3876-0" />
      <stop
         id="stop3888-3"
         offset="0.26988763"
         style="stop-color:#b0b0b0;stop-opacity:0;" />
      <stop
         id="stop3882-5"
         offset="0.47434276"
         style="stop-color:#949494;stop-opacity:1" />
      <stop
         style="stop-color:#ffffff;stop-opacity:1;"
         offset="0.61197346"
         id="stop3884-8" />
      <stop
         id="stop3886-9"
         offset="0.70017713"
         style="stop-color:#c9c9c9;stop-opacity:0.57377046;" />
      <stop
         style="stop-color:#949494;stop-opacity:0;"
         offset="1"
         id="stop3878-3" />
    </linearGradient>
    <linearGradient
       inkscape:collect="always"
       xlink:href="#linearGradient3962"
       id="linearGradient3880-4"
       x1="323.37628"
       y1="97.40062"
       x2="-103.71119"
       y2="8.9522629"
       gradientUnits="userSpaceOnUse" />
    <linearGradient
       id="linearGradient3874-5">
      <stop
         style="stop-color:#969696;stop-opacity:0;"
         offset="0"
         id="stop3876-3" />
      <stop
         id="stop3888-5"
         offset="0.26988763"
         style="stop-color:#b0b0b0;stop-opacity:0;" />
      <stop
         id="stop3882-9"
         offset="0.47434276"
         style="stop-color:#949494;stop-opacity:1" />
      <stop
         style="stop-color:#ffffff;stop-opacity:1;"
         offset="0.61197346"
         id="stop3884-4" />
      <stop
         id="stop3886-2"
         offset="0.70017713"
         style="stop-color:#c9c9c9;stop-opacity:0.57377046;" />
      <stop
         style="stop-color:#949494;stop-opacity:0;"
         offset="1"
         id="stop3878-7" />
    </linearGradient>
    <linearGradient
       y2="8.9522629"
       x2="-103.71119"
       y1="97.40062"
       x1="323.37628"
       gradientUnits="userSpaceOnUse"
       id="linearGradient3909-0"
       xlink:href="#linearGradient3874-5"
       inkscape:collect="always" />
  </defs>
  <sodipodi:namedview
     id="base"
     pagecolor="#ffffff"
     bordercolor="#666666"
     borderopacity="1.0"
     inkscape:pageopacity="0.0"
     inkscape:pageshadow="2"
     inkscape:zoom="2"
     inkscape:cx="170.61747"
     inkscape:cy="984.39218"
     inkscape:document-units="px"
     inkscape:current-layer="layer1"
     showgrid="false"
     inkscape:window-width="1680"
     inkscape:window-height="990"
     inkscape:window-x="-8"
     inkscape:window-y="-8"
     inkscape:window-maximized="1"
     inkscape:snap-grids="true"
     inkscape:snap-object-midpoints="true"
     inkscape:snap-global="false"
     showguides="true"
     inkscape:guide-bbox="true">
    <inkscape:grid
       type="xygrid"
       id="grid2985" />
  </sodipodi:namedview>
  <metadata
     id="metadata7">
    <rdf:RDF>
      <cc:Work
         rdf:about="">
        <dc:format>image/svg+xml</dc:format>
        <dc:type
           rdf:resource="http://purl.org/dc/dcmitype/StillImage" />
        <dc:title></dc:title>
      </cc:Work>
    </rdf:RDF>
  </metadata>
  <g
     inkscape:label="Calque 1"
     inkscape:groupmode="layer"
     id="layer1">
    <path
       transform="matrix(0.8301861,0.55748636,-0.55748636,0.8301861,128.4075,-24.287911)"
       d="m 265.71429,86.647898 -75.77642,55.423422 29.50601,28.41084 -93.88148,0.29823 7.17139,40.32804 L 56.606777,156.16755 38.704326,193.00886 9.4097165,103.81443 -26.728447,123.09687 1.9988888,33.718121 -38.571437,28.076468 37.204978,-27.346957 7.6989756,-55.75779 l 93.8814844,-0.298233 -7.171394,-40.32804 76.127014,54.940874 17.90245,-36.841307 29.29461,89.194434 36.13816,-19.2824457 -28.72734,89.3787527 z"
       inkscape:randomized="0"
       inkscape:rounded="0"
       inkscape:flatsided="false"
       sodipodi:arg2="0.83714557"
       sodipodi:arg1="0.19016241"
       sodipodi:r2="114.05031"
       sodipodi:r1="154.93581"
       sodipodi:cy="57.362183"
       sodipodi:cx="113.57143"
       sodipodi:sides="10"
       id="path2997"
       style="color:#000000;fill:#ffff00;fill-opacity:1;fill-rule:evenodd;stroke:none;stroke-width:0.5;marker:none;visibility:visible;display:inline;overflow:visible;enable-background:accumulate"
       sodipodi:type="star" />
    <path
       sodipodi:type="star"
       style="color:#000000;fill:#ff7f2a;fill-opacity:1;fill-rule:evenodd;stroke:none;stroke-width:0.5;marker:none;visibility:visible;display:inline;overflow:visible;enable-background:accumulate"
       id="path2995"
       sodipodi:sides="10"
       sodipodi:cx="113.57143"
       sodipodi:cy="57.362183"
       sodipodi:r1="154.93581"
       sodipodi:r2="114.05031"
       sodipodi:arg1="0.19016241"
       sodipodi:arg2="0.83714557"
       inkscape:flatsided="false"
       inkscape:rounded="0"
       inkscape:randomized="0"
       d="m 265.71429,86.647898 -75.77642,55.423422 29.50601,28.41084 -93.88148,0.29823 7.17139,40.32804 L 56.606777,156.16755 38.704326,193.00886 9.4097165,103.81443 -26.728447,123.09687 1.9988888,33.718121 -38.571437,28.076468 37.204978,-27.346957 7.6989756,-55.75779 l 93.8814844,-0.298233 -7.171394,-40.32804 76.127014,54.940874 17.90245,-36.841307 29.29461,89.194434 36.13816,-19.2824457 -28.72734,89.3787527 z"
       transform="matrix(0.70680163,0.54602129,-0.54602129,0.70680163,141.76279,-15.908204)" />
    <path
       sodipodi:type="star"
       style="color:#000000;fill:url(#linearGradient3880-4);fill-opacity:1;fill-rule:evenodd;stroke:none;stroke-width:0.44657245000000001;marker:none;visibility:visible;display:inline;overflow:visible;enable-background:accumulate;opacity:1"
       id="path3911"
       sodipodi:sides="10"
       sodipodi:cx="113.57143"
       sodipodi:cy="57.362183"
       sodipodi:r1="154.93581"
       sodipodi:r2="114.05031"
       sodipodi:arg1="0.19016241"
       sodipodi:arg2="0.83714557"
       inkscape:flatsided="false"
       inkscape:rounded="0"
       inkscape:randomized="0"
       d="m 265.71429,86.647898 -75.77642,55.423422 29.50601,28.41084 -93.88148,0.29823 7.17139,40.32804 L 56.606777,156.16755 38.704326,193.00886 9.4097165,103.81443 -26.728447,123.09687 1.9988888,33.718121 -38.571437,28.076468 37.204978,-27.346957 7.6989756,-55.75779 l 93.8814844,-0.298233 -7.171394,-40.32804 76.127014,54.940874 17.90245,-36.841307 29.29461,89.194434 36.13816,-19.2824457 -28.72734,89.3787527 z"
       transform="matrix(0.8301861,0.55748636,-0.55748636,0.8301861,128.4075,-24.287911)"
       inkscape:export-filename=".\First.png"
       inkscape:export-xdpi="146.94"
       inkscape:export-ydpi="146.94" />
    <path
       inkscape:connector-curvature="0"
       id="path8173"
       d="m 151.30708,152.11453 c 0.24465,0.26875 0.29044,1.59427 0.75907,1.96363 0.46505,0.36603 1.71316,0.18661 2.03546,0.36767 0.32553,0.17741 1.07325,1.27006 1.44458,1.40313 0.37452,0.12948 1.70768,-0.58787 2.06098,-0.52284 0.35654,0.0614 1.39759,0.57241 1.77106,0.57051 0.37387,0.005 1.44995,-0.27477 1.81316,-0.3314 0.35957,-0.0599 1.42072,-0.30067 1.76638,-0.41849 0.34933,-0.11459 1.43762,-0.36395 1.7694,-0.53974 0.32855,-0.17213 0.97715,-1.1696 1.25769,-1.39077 0.28429,-0.21784 1.10454,-0.89373 1.34817,-1.1541 0.24704,-0.26386 1.07154,-0.98165 1.27091,-1.28774 0.20626,-0.30651 0.71905,-1.2612 0.86482,-1.5952 0.15266,-0.33441 0.18871,-1.4504 0.2785,-1.79483 0.0898,-0.34443 0.75017,-1.31843 0.78314,-1.68709 0.033,-0.36866 -0.36844,-1.45465 -0.39666,-1.80576 -0.0286,-0.358 0.21743,-1.49019 0.12633,-1.85132 -0.0874,-0.3579 -0.75212,-1.27917 -0.89344,-1.61304 -0.14457,-0.33021 -0.41419,-1.41036 -0.61264,-1.71655 -0.19889,-0.31305 -0.62702,-1.38361 -0.88259,-1.66213 -0.25926,-0.2817 -1.34194,-0.73835 -1.62904,-0.96652 -0.28709,-0.2282 -0.98427,-1.17169 -1.31712,-1.35557 -0.33285,-0.1839 -1.4262,-0.47382 -1.77962,-0.59766 -0.34976,-0.1206 -1.05404,-1.18129 -1.64828,-1.28359 -0.59424,-0.10231 -1.62764,1.10879 -1.98732,1.10986 -0.36008,-0.006 -1.50515,-0.63507 -1.8854,-0.57394 -0.38024,0.0611 -1.30442,0.90585 -1.6501,1.02368 -0.34243,0.11418 -1.56756,0.0467 -1.90946,0.22654 -0.33501,0.17945 -0.95184,1.2442 -1.23936,1.4657 -0.29112,0.21832 -1.22434,0.80069 -1.47402,1.07526 -0.25028,0.26753 -0.63497,1.33567 -0.8315,1.63123 -0.19655,0.29554 -2.19405,0.26804 -2.45008,0.83701 -0.24914,0.56856 1.12699,2.04162 1.03721,2.38605 -0.0898,0.34443 -1.82169,0.98913 -1.87814,1.59788 -0.0528,0.61199 1.52265,1.55065 1.55453,1.90499 0.025,0.35476 0.18182,1.40025 0.26518,1.74801 0.0866,0.34411 0.38044,1.36745 0.52136,1.69442 0.1409,0.32696 0.27686,1.48442 0.47896,1.79384 0.20255,0.31629 1.00965,1.07676 1.25791,1.34879"
       style="fill:#ff0000;fill-opacity:1;fill-rule:nonzero;stroke:#800000;stroke-width:1" />
    <text
       xml:space="preserve"
       style="font-size:36px;font-style:normal;font-weight:normal;text-align:center;line-height:125%;letter-spacing:0px;word-spacing:0px;text-anchor:middle;fill:#000000;fill-opacity:1;stroke:none;font-family:Sans"
       id="text2987"
       sodipodi:linespacing="125%"><textPath
         xlink:href="#path2990"
         startOffset="50%"
         id="textPath3761"><tspan
   id="tspan2989">Zomb - Craft</tspan></textPath></text>
    <path
       style="fill:#ff0000;stroke:none"
       d="m 165.875,-66.28125 7.25,33.53125 c 1.56194,-8.111524 2.48263,-5.117892 9.03125,-13.46875 1.67459,-2.135458 3.05337,-4.279233 4.21875,-6.40625 z m 6.15625,40.125 -5.783,0.472557 5.18925,7.82186 c 0.23022,-1.539576 0.40142,-7.042838 0.59375,-8.294417 z"
       id="path2999"
       inkscape:connector-curvature="0"
       sodipodi:nodetypes="ccscccccc" />
    <path
       style="fill:#aa0000;stroke:none"
       d="M 311.6875 107.03125 C 299.99789 118.38883 292.21063 135.88788 287.25 154.96875 L 343.84375 110.28125 L 311.6875 107.03125 z M 282.28125 179.3125 C 280.21617 187.82328 275.06569 193.34576 268.25 197.0625 L 300.6875 195.78125 L 282.28125 179.3125 z M 111.65625 188.65625 C 110.23332 188.66178 108.90685 188.79397 107.625 189.03125 L 120.90625 224.96875 L 134.5 194.1875 C 126.10434 190.9064 118.17927 188.63091 111.65625 188.65625 z M 209.03125 209.5625 C 205.33564 210.83741 202.35254 212.51539 200.5 214.9375 C 196.60484 220.03025 186.83342 217.49495 174.71875 212.375 L 215.53125 239.59375 L 209.03125 209.5625 z "
       id="path3006" />
    <path
       style="color:#000000;fill:#ffffff;fill-opacity:1;fill-rule:evenodd;stroke:#999999;stroke-width:0.5;stroke-linecap:square;stroke-linejoin:miter;stroke-miterlimit:4;stroke-opacity:1;stroke-dasharray:none;stroke-dashoffset:0;marker:none;visibility:visible;display:inline;overflow:visible;enable-background:accumulate"
       d="m 207.09052,120.84563 0.51068,-4.39037 -4.39035,-0.51068 1.77077,1.05745 -5.05095,1.38789 1.8528,1.83439 5.30705,0.62132 z"
       id="rect3847"
       inkscape:connector-curvature="0" />
    <path
       style="color:#000000;fill:#ffffff;fill-opacity:1;fill-rule:evenodd;stroke:#999999;stroke-width:0.5;stroke-linecap:square;stroke-linejoin:miter;stroke-miterlimit:4;stroke-opacity:1;stroke-dasharray:none;stroke-dashoffset:0;marker:none;visibility:visible;display:inline;overflow:visible;enable-background:accumulate"
       d="m 202.65181,121.86872 -0.625,2.53125 -3.78125,-3.625 0,2.0625 2.6875,5.96875 4.03125,-1.84375 -2.3125,-5.09375 z"
       id="path3852"
       inkscape:connector-curvature="0" />
    <path
       style="color:#000000;fill:#ffffff;fill-opacity:1;fill-rule:evenodd;stroke:#999999;stroke-width:0.5;stroke-linecap:square;stroke-linejoin:miter;stroke-miterlimit:4;stroke-opacity:1;stroke-dasharray:none;stroke-dashoffset:0;marker:none;visibility:visible;display:inline;overflow:visible;enable-background:accumulate"
       d="m 159.25,169.625 7.3125,6 -7.9375,-4.5 7.3125,5.9375 -5.5625,-2.8125 4.0625,3.9375 -0.0625,1.96875 0.5625,0.40625 1.0625,-1.125 6.25,0.3125 -3.0625,2.1875 -1.8125,-1.4375 -1.3125,0.9375 0.46875,0.34375 c -0.0111,0.14931 -0.0312,0.31653 -0.0312,0.46875 0,0.59931 0.14928,1.14281 0.3125,1.6875 l 4.5,1.9375 -3.84375,-0.53125 c 1.02076,1.63612 2.74151,2.78125 4.78125,2.78125 3.17564,0 5.75,-2.63033 5.75,-5.875 0,-3.24467 -2.57436,-5.875 -5.75,-5.875 -0.7591,0 -1.49281,0.13319 -2.15625,0.40625 L 163.0625,171.4375 159.25,169.625 z"
       id="path3867"
       inkscape:connector-curvature="0" />
    <path
       style="fill:#225500;stroke:#ff0000;stroke-width:1px;stroke-linecap:butt;stroke-linejoin:miter;stroke-opacity:1"
       d="m 154.53125,94.15625 c -2.75729,0.503692 -6.69259,2.957301 -7.0625,4.28125 -2.00972,7.1928 29.15625,54.375 29.15625,54.375 l -9.59375,-13.125 -4.875,1.75 -2.15625,6.25 -4.0625,-0.4375 11.09375,14.15625 c 0,0 2.9708,3.56726 4.23316,9.92065 -1.33661,0.39017 -2.05977,1.01272 -3.93935,-0.61519 l 0.58119,7.50704 6.1875,3.53125 -4.9375,1.78125 7.40625,3.34375 -5.8125,0.1875 0.53125,3 4.65625,4.65625 c 8.26875,4.37042 17.76294,7.85309 20.8125,11.625 l 2.53125,-4.1875 0.375,-6.96875 3.90625,1.0625 -0.15625,-6.0625 4.4375,2.84375 3.75,-0.875 -0.15625,-6.4375 7.125,6.25 5,1.25 -0.34375,-4.09375 4.28125,1.40625 -3.5,-3.84375 c -4.94485,-10.60282 -4.94844,-34.87738 -6.96875,-43.96875 -2.0203,-9.09138 -7.5625,-18.6875 -7.5625,-18.6875 l 9.28125,-0.625 -3.03125,-1.25 2.84375,-3.59375 -2.84375,-1.78125 1.4375,-3.21875 -10.90625,0.90625 -2.3125,8.75 -6.59375,3.34375 4.03125,9.59375 -5.5625,-12.625 -1.71875,2.71875 -3.03125,-1.96875 -2.125,4.84375 -3.9375,-2.5 0.90625,4.625 -3.21875,-0.65625 6.0625,13.125 c 0,0 -20.28876,-39.8582 -32.03125,-49.3125 -0.47536,-0.38273 -1.2684,-0.417897 -2.1875,-0.25 z"
       id="path3011"
       inkscape:connector-curvature="0"
       sodipodi:nodetypes="ssccccccccccccccccccccccccccccsccccccccccccccccccss" />
    <path
       style="color:#000000;fill:none;stroke:#000000;stroke-width:1;stroke-linecap:square;stroke-linejoin:miter;stroke-miterlimit:4;stroke-opacity:0;stroke-dashoffset:0;marker:none;visibility:visible;display:inline;overflow:visible;enable-background:accumulate"
       d="m 114.28571,102.36218 c 0,-42.210334 34.21823,-76.428572 76.42857,-76.428572 42.21033,0 76.42857,34.218238 76.42857,76.428572"
       id="path2990"
       inkscape:connector-curvature="0"
       sodipodi:nodetypes="csc" />
    <path
       style="fill:none;stroke:#000000;stroke-width:1px;stroke-linecap:butt;stroke-linejoin:miter;stroke-opacity:1"
       d="m 161.25,120.18361 c 3.48887,-4.21305 6.28181,-3.6973 7.32143,-4.82142"
       id="path3976"
       inkscape:connector-curvature="0"
       sodipodi:nodetypes="cc" />
    <path
       sodipodi:nodetypes="cc"
       inkscape:connector-curvature="0"
       id="path3978"
       d="m 163.92857,124.29075 c 3.48887,-4.21305 6.28181,-3.6973 7.32143,-4.82142"
       style="fill:none;stroke:#000000;stroke-width:1px;stroke-linecap:butt;stroke-linejoin:miter;stroke-opacity:1" />
    <path
       style="fill:#483737;fill-opacity:0.7556561;stroke:#000000;stroke-width:1px;stroke-linecap:butt;stroke-linejoin:miter;stroke-opacity:1"
       d="m 152.23215,106.34432 c 1.80092,0.6108 7.24419,-2.5092 8.39285,-4.01785 1.14867,-1.50866 -5.26785,-7.410717 -5.26785,-7.410717 l -1.07144,1.875 -3.57143,0.446428 -1.96428,-6.160714 c 0,0 -2.27555,0.889048 -2.58929,2.857143 -0.31373,1.968095 4.27052,11.79991 6.07144,12.41071 z"
       id="path3980"
       inkscape:connector-curvature="0"
       sodipodi:nodetypes="zzcccczz" />
    <path
       style="fill:#225500;stroke:#112b00;stroke-width:1px;stroke-linecap:butt;stroke-linejoin:miter;stroke-opacity:1"
       d="m 194.64286,136.88004 13.75,44.03571"
       id="path3984"
       inkscape:connector-curvature="0"
       sodipodi:nodetypes="cc" />
    <path
       style="fill:#225500;stroke:#112b00;stroke-width:1px;stroke-linecap:butt;stroke-linejoin:miter;stroke-opacity:1"
       d="m 208.10714,134.34432 2.80357,38.69643"
       id="path3986"
       inkscape:connector-curvature="0"
       sodipodi:nodetypes="cc" />
    <path
       style="fill:#225500;stroke:#112b00;stroke-width:1px;stroke-linecap:butt;stroke-linejoin:miter;stroke-opacity:1"
       d="m 182.64286,147.66575 23.125,34.71429"
       id="path3988"
       inkscape:connector-curvature="0"
       sodipodi:nodetypes="cc" />
    <path
       style="fill:#225500;stroke:#112b00;stroke-width:1px;stroke-linecap:butt;stroke-linejoin:miter;stroke-opacity:1"
       d="M 171.76786,157.30861 202.75,185.75504"
       id="path3990"
       inkscape:connector-curvature="0"
       sodipodi:nodetypes="cc" />
    <path
       style="fill:#e90000;fill-opacity:0.60633485;stroke:none"
       d="m 211.51786,164.11218 c -3.47492,-6.15147 -10.80079,-10.20735 -16.69643,-10.98214 2.31591,-0.65262 4.80759,-0.8142 8.92858,1.05357 -2.22039,-3.24197 -2.99419,-3.82927 -5.44644,-6.14285 7.95006,3.73459 14.25202,8.22983 19.10714,13.39285 -3.0872,-1.73565 -5.93379,-4.76269 -9.37499,-5.35714 2.2728,2.15019 2.45394,5.58594 3.48214,8.03571 z"
       id="path4000"
       inkscape:connector-curvature="0"
       sodipodi:nodetypes="ccccccc" />
    <path
       style="fill:#808000;stroke:#000000;stroke-width:1px;stroke-linecap:butt;stroke-linejoin:miter;stroke-opacity:1"
       d="m 267.28636,462.28157 0,4.77297 3.35876,-0.17677 0,-3.71231 2.65165,-3.18198 0,-2.82843 -4.24264,4.94975 z"
       id="path4052"
       inkscape:connector-curvature="0"
       inkscape:export-filename="C:\Users\Miaou\Documents\Projs\ZombCraft\FirstUI.png"
       inkscape:export-xdpi="360"
       inkscape:export-ydpi="360" />
    <rect
       style="color:#000000;fill:none;stroke:#000000;stroke-width:1;stroke-miterlimit:4;stroke-opacity:1;stroke-dasharray:none;marker:none;visibility:visible;display:inline;overflow:visible;enable-background:accumulate"
       id="rect4026"
       width="325"
       height="260"
       x="90"
       y="317.36218"
       inkscape:export-filename="C:\Users\Miaou\Documents\Projs\ZombCraft\FirstUI.png"
       inkscape:export-xdpi="360"
       inkscape:export-ydpi="360" />
    <path
       sodipodi:type="arc"
       style="color:#000000;fill:#ffffff;fill-opacity:1;fill-rule:evenodd;stroke:#000000;stroke-width:1;stroke-linecap:square;stroke-linejoin:miter;stroke-miterlimit:4;stroke-opacity:1;stroke-dasharray:none;stroke-dashoffset:0;marker:none;visibility:visible;display:inline;overflow:visible;enable-background:accumulate"
       id="path4028"
       sodipodi:cx="248.75"
       sodipodi:cy="454.86218"
       sodipodi:rx="6.75"
       sodipodi:ry="7.5"
       d="m 255.5,454.86218 a 6.75,7.5 0 1 1 -13.5,0 6.75,7.5 0 1 1 13.5,0 z"
       transform="translate(6.25,-2.5)"
       inkscape:export-filename="C:\Users\Miaou\Documents\Projs\ZombCraft\FirstUI.png"
       inkscape:export-xdpi="360"
       inkscape:export-ydpi="360" />
    <path
       style="fill:none;stroke:#000000;stroke-width:1px;stroke-linecap:butt;stroke-linejoin:miter;stroke-opacity:1"
       d="m 253.5606,460.13512 0.17677,4.41942 c 0,0 -2.65165,-1.59099 -4.41941,0 -1.76777,1.59099 -10.93273,8.76617 -9.01562,10.6066 2.20971,2.12132 11.49049,-12.28598 11.66727,-5.92202 0.17678,6.36396 -3.00521,36.32762 -1.94455,36.32762 1.06066,0 2.82843,3.35875 3.18198,-0.88389 0.35356,-4.24264 2.82843,-28.28427 3.71231,-22.27386 0.88389,6.01041 2.65165,24.74874 3.88909,24.04163 1.23744,-0.70711 2.82519,-0.70712 2.82842,-1.59099 0.003,-0.88353 -7.96711,-39.16778 -4.59619,-35.53212 0.95933,1.03467 2.24757,4.89055 3.95933,4.03467 2,-1 3.45047,-1.55348 4.7955,-3.29809 1.34502,-1.74462 1.64645,-4.77298 1.46967,-5.83364 -0.0834,-0.50027 -2.77486,6.27853 -5.23795,4.40036 -2.75905,-2.10386 -5.67684,-4.73166 -7.63819,-4.87176 l -0.35356,-3.97748"
       id="path4030"
       inkscape:connector-curvature="0"
       sodipodi:nodetypes="ccsssssssssszsscc"
       inkscape:export-filename="C:\Users\Miaou\Documents\Projs\ZombCraft\FirstUI.png"
       inkscape:export-xdpi="360"
       inkscape:export-ydpi="360" />
    <path
       transform="translate(74.5,-112.5)"
       d="m 255.5,454.86218 a 6.75,7.5 0 1 1 -13.5,0 6.75,7.5 0 1 1 13.5,0 z"
       sodipodi:ry="7.5"
       sodipodi:rx="6.75"
       sodipodi:cy="454.86218"
       sodipodi:cx="248.75"
       id="path4032"
       style="color:#000000;fill:#225500;fill-opacity:1;fill-rule:evenodd;stroke:#000000;stroke-width:1;stroke-linecap:square;stroke-linejoin:miter;stroke-miterlimit:4;stroke-opacity:1;stroke-dasharray:none;stroke-dashoffset:0;marker:none;visibility:visible;display:inline;overflow:visible;enable-background:accumulate"
       sodipodi:type="arc"
       inkscape:export-filename="C:\Users\Miaou\Documents\Projs\ZombCraft\FirstUI.png"
       inkscape:export-xdpi="360"
       inkscape:export-ydpi="360" />
    <path
       sodipodi:nodetypes="ccssssssssscscc"
       inkscape:connector-curvature="0"
       id="path4034"
       d="m 321.8106,350.13512 0.17677,4.41942 c 0,0 -2.65165,-1.59099 -4.41941,0 -1.76777,1.59099 -10.93273,8.76617 -9.01562,10.6066 2.20971,2.12132 11.49049,-12.28598 11.66727,-5.92202 0.17678,6.36396 -3.00521,36.32762 -1.94455,36.32762 1.06066,0 2.82843,3.35875 3.18198,-0.88389 0.35356,-4.24264 2.82843,-28.28427 3.71231,-22.27386 0.88389,6.01041 2.65165,24.74874 3.88909,24.04163 1.23744,-0.70711 2.82519,-0.70712 2.82842,-1.59099 0.003,-0.88353 -6.89093,-39.92703 -4.59619,-35.53212 1.8611,3.5644 6.40795,5.21535 8.3969,5.83363 1.87124,-0.30219 0.70711,-1.23744 0.53033,-2.2981 -0.17678,-1.06066 -7.86656,-8.83882 -11.57887,-9.10399 l -0.35356,-3.97748"
       style="fill:#225500;stroke:#000000;stroke-width:1px;stroke-linecap:butt;stroke-linejoin:miter;stroke-opacity:1"
       inkscape:export-filename="C:\Users\Miaou\Documents\Projs\ZombCraft\FirstUI.png"
       inkscape:export-xdpi="360"
       inkscape:export-ydpi="360" />
    <path
       sodipodi:type="arc"
       style="color:#000000;fill:#225500;fill-opacity:1;fill-rule:evenodd;stroke:#000000;stroke-width:1;stroke-linecap:square;stroke-linejoin:miter;stroke-miterlimit:4;stroke-opacity:1;stroke-dasharray:none;stroke-dashoffset:0;marker:none;visibility:visible;display:inline;overflow:visible;enable-background:accumulate"
       id="path4036"
       sodipodi:cx="248.75"
       sodipodi:cy="454.86218"
       sodipodi:rx="6.75"
       sodipodi:ry="7.5"
       d="m 255.5,454.86218 a 6.75,7.5 0 1 1 -13.5,0 6.75,7.5 0 1 1 13.5,0 z"
       transform="translate(41.25,-117.5)"
       inkscape:export-filename="C:\Users\Miaou\Documents\Projs\ZombCraft\FirstUI.png"
       inkscape:export-xdpi="360"
       inkscape:export-ydpi="360" />
    <path
       style="fill:#225500;stroke:#000000;stroke-width:1px;stroke-linecap:butt;stroke-linejoin:miter;stroke-opacity:1"
       d="m 288.5606,345.13512 0.17677,4.41942 c 0,0 -2.65165,-1.59099 -4.41941,0 -1.76777,1.59099 -10.93273,8.76617 -9.01562,10.6066 2.20971,2.12132 11.49049,-12.28598 11.66727,-5.92202 0.17678,6.36396 -3.00521,36.32762 -1.94455,36.32762 1.06066,0 2.82843,3.35875 3.18198,-0.88389 0.35356,-4.24264 2.82843,-28.28427 3.71231,-22.27386 0.88389,6.01041 2.65165,24.74874 3.88909,24.04163 1.23744,-0.70711 2.82519,-0.70712 2.82842,-1.59099 0.003,-0.88353 -6.89093,-39.92703 -4.59619,-35.53212 1.8611,3.5644 6.40795,5.21535 8.3969,5.83363 1.87124,-0.30219 0.70711,-1.23744 0.53033,-2.2981 -0.17678,-1.06066 -7.86656,-8.83882 -11.57887,-9.10399 l -0.35356,-3.97748"
       id="path4038"
       inkscape:connector-curvature="0"
       sodipodi:nodetypes="ccssssssssscscc"
       inkscape:export-filename="C:\Users\Miaou\Documents\Projs\ZombCraft\FirstUI.png"
       inkscape:export-xdpi="360"
       inkscape:export-ydpi="360" />
    <path
       transform="translate(-37,-112.5)"
       d="m 255.5,454.86218 a 6.75,7.5 0 1 1 -13.5,0 6.75,7.5 0 1 1 13.5,0 z"
       sodipodi:ry="7.5"
       sodipodi:rx="6.75"
       sodipodi:cy="454.86218"
       sodipodi:cx="248.75"
       id="path4040"
       style="color:#000000;fill:#225500;fill-opacity:1;fill-rule:evenodd;stroke:#000000;stroke-width:1;stroke-linecap:square;stroke-linejoin:miter;stroke-miterlimit:4;stroke-opacity:1;stroke-dasharray:none;stroke-dashoffset:0;marker:none;visibility:visible;display:inline;overflow:visible;enable-background:accumulate"
       sodipodi:type="arc"
       inkscape:export-filename="C:\Users\Miaou\Documents\Projs\ZombCraft\FirstUI.png"
       inkscape:export-xdpi="360"
       inkscape:export-ydpi="360" />
    <path
       sodipodi:nodetypes="ccssssssssscscc"
       inkscape:connector-curvature="0"
       id="path4042"
       d="m 210.3106,350.13512 0.17677,4.41942 c 0,0 -2.65165,-1.59099 -4.41941,0 -1.76777,1.59099 -10.93273,8.76617 -9.01562,10.6066 2.20971,2.12132 11.49049,-12.28598 11.66727,-5.92202 0.17678,6.36396 -3.00521,36.32762 -1.94455,36.32762 1.06066,0 2.82843,3.35875 3.18198,-0.88389 0.35356,-4.24264 2.82843,-28.28427 3.71231,-22.27386 0.88389,6.01041 2.65165,24.74874 3.88909,24.04163 1.23744,-0.70711 2.82519,-0.70712 2.82842,-1.59099 0.003,-0.88353 -6.89093,-39.92703 -4.59619,-35.53212 1.8611,3.5644 6.40795,5.21535 8.3969,5.83363 1.87124,-0.30219 0.70711,-1.23744 0.53033,-2.2981 -0.17678,-1.06066 -7.86656,-8.83882 -11.57887,-9.10399 l -0.35356,-3.97748"
       style="fill:#225500;stroke:#000000;stroke-width:1px;stroke-linecap:butt;stroke-linejoin:miter;stroke-opacity:1"
       inkscape:export-filename="C:\Users\Miaou\Documents\Projs\ZombCraft\FirstUI.png"
       inkscape:export-xdpi="360"
       inkscape:export-ydpi="360" />
    <path
       sodipodi:type="arc"
       style="color:#000000;fill:#225500;fill-opacity:1;fill-rule:evenodd;stroke:#000000;stroke-width:1;stroke-linecap:square;stroke-linejoin:miter;stroke-miterlimit:4;stroke-opacity:1;stroke-dasharray:none;stroke-dashoffset:0;marker:none;visibility:visible;display:inline;overflow:visible;enable-background:accumulate"
       id="path4044"
       sodipodi:cx="248.75"
       sodipodi:cy="454.86218"
       sodipodi:rx="6.75"
       sodipodi:ry="7.5"
       d="m 255.5,454.86218 a 6.75,7.5 0 1 1 -13.5,0 6.75,7.5 0 1 1 13.5,0 z"
       transform="translate(6.25,-117.5)"
       inkscape:export-filename="C:\Users\Miaou\Documents\Projs\ZombCraft\FirstUI.png"
       inkscape:export-xdpi="360"
       inkscape:export-ydpi="360" />
    <path
       style="fill:#225500;stroke:#000000;stroke-width:1px;stroke-linecap:butt;stroke-linejoin:miter;stroke-opacity:1"
       d="m 253.5606,345.13512 0.17677,4.41942 c 0,0 -2.65165,-1.59099 -4.41941,0 -1.76777,1.59099 -10.93273,8.76617 -9.01562,10.6066 2.20971,2.12132 11.49049,-12.28598 11.66727,-5.92202 0.17678,6.36396 -3.00521,36.32762 -1.94455,36.32762 1.06066,0 2.82843,3.35875 3.18198,-0.88389 0.35356,-4.24264 2.82843,-28.28427 3.71231,-22.27386 0.88389,6.01041 2.65165,24.74874 3.88909,24.04163 1.23744,-0.70711 2.82519,-0.70712 2.82842,-1.59099 0.003,-0.88353 -6.89093,-39.92703 -4.59619,-35.53212 1.8611,3.5644 6.40795,5.21535 8.3969,5.83363 1.87124,-0.30219 0.70711,-1.23744 0.53033,-2.2981 -0.17678,-1.06066 -7.86656,-8.83882 -11.57887,-9.10399 l -0.35356,-3.97748"
       id="path4046"
       inkscape:connector-curvature="0"
       sodipodi:nodetypes="ccssssssssscscc"
       inkscape:export-filename="C:\Users\Miaou\Documents\Projs\ZombCraft\FirstUI.png"
       inkscape:export-xdpi="360"
       inkscape:export-ydpi="360" />
    <path
       transform="translate(111.25,-27.5)"
       d="m 255.5,454.86218 a 6.75,7.5 0 1 1 -13.5,0 6.75,7.5 0 1 1 13.5,0 z"
       sodipodi:ry="7.5"
       sodipodi:rx="6.75"
       sodipodi:cy="454.86218"
       sodipodi:cx="248.75"
       id="path4048"
       style="color:#000000;fill:#225500;fill-opacity:1;fill-rule:evenodd;stroke:#000000;stroke-width:1;stroke-linecap:square;stroke-linejoin:miter;stroke-miterlimit:4;stroke-opacity:1;stroke-dasharray:none;stroke-dashoffset:0;marker:none;visibility:visible;display:inline;overflow:visible;enable-background:accumulate"
       sodipodi:type="arc"
       inkscape:export-filename="C:\Users\Miaou\Documents\Projs\ZombCraft\FirstUI.png"
       inkscape:export-xdpi="360"
       inkscape:export-ydpi="360" />
    <path
       sodipodi:nodetypes="ccssssssssscscc"
       inkscape:connector-curvature="0"
       id="path4050"
       d="m 358.5606,435.13512 0.17677,4.41942 c 0,0 -2.65165,-1.59099 -4.41941,0 -1.76777,1.59099 -10.93273,8.76617 -9.01562,10.6066 2.20971,2.12132 11.49049,-12.28598 11.66727,-5.92202 0.17678,6.36396 -3.00521,36.32762 -1.94455,36.32762 1.06066,0 2.82843,3.35875 3.18198,-0.88389 0.35356,-4.24264 2.82843,-28.28427 3.71231,-22.27386 0.88389,6.01041 2.65165,24.74874 3.88909,24.04163 1.23744,-0.70711 2.82519,-0.70712 2.82842,-1.59099 0.003,-0.88353 -6.89093,-39.92703 -4.59619,-35.53212 1.8611,3.5644 6.40795,5.21535 8.3969,5.83363 1.87124,-0.30219 0.70711,-1.23744 0.53033,-2.2981 -0.17678,-1.06066 -7.86656,-8.83882 -11.57887,-9.10399 l -0.35356,-3.97748"
       style="fill:#225500;stroke:#000000;stroke-width:1px;stroke-linecap:butt;stroke-linejoin:miter;stroke-opacity:1"
       inkscape:export-filename="C:\Users\Miaou\Documents\Projs\ZombCraft\FirstUI.png"
       inkscape:export-xdpi="360"
       inkscape:export-ydpi="360" />
    <path
       style="color:#000000;fill:#ff0000;fill-opacity:1;fill-rule:evenodd;stroke:none;stroke-width:1;marker:none;visibility:visible;display:inline;overflow:visible;enable-background:accumulate"
       d="m 342.78286,346.74046 c 1.26433,1.22496 3.05004,5.19968 -1.17725,9.56285 -1.56414,1.61442 -6.27931,0.25221 -7.75589,1.28584 -2.51406,1.75989 -3.1375,2.57351 -6.37523,4.95175 1.89453,-3.05928 -0.69285,-6.43881 0.61621,-9.15094 0.92669,-1.91995 4.15556,-0.94279 5.90772,-2.75127 2.04951,-2.11539 2.46515,-5.32836 3.95067,-5.93427 1.5785,-0.64381 4.18243,1.40498 4.83377,2.03604 z"
       id="path4078"
       inkscape:connector-curvature="0"
       sodipodi:nodetypes="ssscssss"
       inkscape:export-filename="C:\Users\Miaou\Documents\Projs\ZombCraft\FirstUI.png"
       inkscape:export-xdpi="360"
       inkscape:export-ydpi="360" />
    <g
       id="g4068"
       transform="translate(-20.25,-12.5)"
       inkscape:export-filename="C:\Users\Miaou\Documents\Projs\ZombCraft\FirstUI.png"
       inkscape:export-xdpi="360"
       inkscape:export-ydpi="360">
      <path
         transform="translate(14,-24.25)"
         d="m 367.5,375.36218 c 0,8.00813 -6.49187,14.5 -14.5,14.5 -8.00813,0 -14.5,-6.49187 -14.5,-14.5 0,-8.00813 6.49187,-14.5 14.5,-14.5 8.00813,0 14.5,6.49187 14.5,14.5 z"
         sodipodi:ry="14.5"
         sodipodi:rx="14.5"
         sodipodi:cy="375.36218"
         sodipodi:cx="353"
         id="path4056"
         style="color:#000000;fill:none;stroke:#000000;stroke-width:1;stroke-linecap:square;stroke-linejoin:miter;stroke-miterlimit:4;stroke-opacity:1;stroke-dasharray:none;stroke-dashoffset:0;marker:none;visibility:visible;display:inline;overflow:visible;enable-background:accumulate"
         sodipodi:type="arc" />
      <path
         d="m 368.25,351.11218 c 0,0.69036 -0.55964,1.25 -1.25,1.25 -0.69036,0 -1.25,-0.55964 -1.25,-1.25 0,-0.69035 0.55964,-1.25 1.25,-1.25 0.69036,0 1.25,0.55965 1.25,1.25 z"
         sodipodi:ry="1.2500004"
         sodipodi:rx="1.2500004"
         sodipodi:cy="351.11218"
         sodipodi:cx="367"
         id="path4058"
         style="color:#000000;fill:#000000;stroke:none;stroke-width:1;marker:none;visibility:visible;display:inline;overflow:visible;enable-background:accumulate"
         sodipodi:type="arc" />
      <path
         inkscape:connector-curvature="0"
         id="path4060"
         d="m 377.41824,351.26581 8.66206,0"
         style="fill:none;stroke:#000000;stroke-width:1px;stroke-linecap:butt;stroke-linejoin:miter;stroke-opacity:1" />
      <path
         inkscape:connector-curvature="0"
         id="path4062"
         d="m 366.56164,332.70426 0.17678,7.07106"
         style="fill:none;stroke:#000000;stroke-width:1px;stroke-linecap:butt;stroke-linejoin:miter;stroke-opacity:1" />
      <path
         inkscape:connector-curvature="0"
         id="path4064"
         d="m 356.20504,350.91225 -7.77817,0"
         style="fill:none;stroke:#000000;stroke-width:1px;stroke-linecap:butt;stroke-linejoin:miter;stroke-opacity:1" />
      <path
         inkscape:connector-curvature="0"
         id="path4066"
         d="m 367.2473,362.52774 0.17678,6.89429"
         style="fill:none;stroke:#000000;stroke-width:1px;stroke-linecap:butt;stroke-linejoin:miter;stroke-opacity:1" />
    </g>
    <path
       sodipodi:type="arc"
       style="color:#000000;fill:#ff0000;fill-opacity:1;fill-rule:evenodd;stroke:none;stroke-width:1;marker:none;visibility:visible;display:inline;overflow:visible;enable-background:accumulate"
       id="path4076"
       sodipodi:cx="325.5"
       sodipodi:cy="365.23718"
       sodipodi:rx="1.25"
       sodipodi:ry="1.875"
       d="m 326.75,365.23718 a 1.25,1.875 0 1 1 -2.5,0 1.25,1.875 0 1 1 2.5,0 z"
       inkscape:export-filename="C:\Users\Miaou\Documents\Projs\ZombCraft\FirstUI.png"
       inkscape:export-xdpi="360"
       inkscape:export-ydpi="360" />
    <path
       style="font-size:medium;font-style:normal;font-variant:normal;font-weight:normal;font-stretch:normal;text-indent:0;text-align:start;text-decoration:none;line-height:normal;letter-spacing:normal;word-spacing:normal;text-transform:none;direction:ltr;block-progression:tb;writing-mode:lr-tb;text-anchor:start;baseline-shift:baseline;color:#000000;fill:#ff8080;fill-opacity:1;fill-rule:nonzero;stroke:none;stroke-width:1px;marker:none;visibility:visible;display:inline;overflow:visible;enable-background:accumulate;font-family:Sans;-inkscape-font-specification:Sans"
       d="m 198.3125,148.03125 c 0.19397,0.18301 0.32548,0.30518 0.5,0.46875 l -0.0937,-0.28125 c -0.13611,-0.0649 -0.26916,-0.1231 -0.40625,-0.1875 z m 0.75,4.75 0.5,1.59375 c 0.41199,0.15627 0.80762,0.31846 1.21875,0.5 l -0.59375,-1.9375 c -0.38697,-0.0849 -0.76901,-0.113 -1.125,-0.15625 z"
       id="path4081"
       inkscape:connector-curvature="0" />
    <path
       style="font-size:medium;font-style:normal;font-variant:normal;font-weight:normal;font-stretch:normal;text-indent:0;text-align:start;text-decoration:none;line-height:normal;letter-spacing:normal;word-spacing:normal;text-transform:none;direction:ltr;block-progression:tb;writing-mode:lr-tb;text-anchor:start;baseline-shift:baseline;color:#000000;fill:#ff8080;fill-opacity:1;fill-rule:nonzero;stroke:none;stroke-width:1px;marker:none;visibility:visible;display:inline;overflow:visible;enable-background:accumulate;font-family:Sans;-inkscape-font-specification:Sans"
       d="m 209.03125,154.1875 0.15625,2.1875 c 0.34967,0.11544 0.69172,0.25045 1.03125,0.40625 L 210.09375,155 c -0.36127,-0.26664 -0.69067,-0.55073 -1.0625,-0.8125 z m 0.25,3.53125 0.28125,3.59375 c 0.38996,0.46442 0.7507,0.9406 1.09375,1.4375 l -0.125,-1.8125 c -0.31447,-1.11111 -0.67809,-2.20753 -1.25,-3.21875 z"
       id="path4087"
       inkscape:connector-curvature="0" />
    <path
       inkscape:connector-curvature="0"
       id="path4011"
       d="m 146.82943,156.68163 c 0.13031,0.0959 0.33136,0.27394 0.48875,0.30245 0.15738,0.0285 0.40206,-0.1005 0.5585,-0.14458 0.15321,-0.0404 0.51101,0.0416 0.63245,-0.066 0.11819,-0.10405 0.18493,-0.42976 0.24508,-0.57869 0.0638,-0.14567 0.33415,-0.42152 0.32453,-0.58006 -0.003,-0.1589 -0.44548,-0.32919 -0.52306,-0.4699 -0.074,-0.13739 -0.15918,-0.34317 -0.28952,-0.43903 -0.1299,-0.089 -0.31803,-0.28164 -0.47541,-0.31015 -0.15738,-0.0285 -0.44458,-0.0872 -0.60102,-0.0431 -0.15321,0.0404 -0.3653,0.25045 -0.48716,0.35124 -0.12143,0.1077 -0.40947,0.26352 -0.47327,0.40921 -0.0671,0.14933 0.1217,0.4665 0.12766,0.6218 0.006,0.16213 -0.0361,0.4311 0.0416,0.57167 0.0777,0.14063 0.30408,0.28265 0.431,0.37501"
       style="fill:#ff0000;fill-opacity:1;fill-rule:nonzero;stroke:#800000;stroke-width:1" />
    <path
       inkscape:connector-curvature="0"
       id="path4013"
       d="m 154.91109,159.24695 c -0.15027,0.0887 -0.63169,0.47763 -0.70154,0.63752 -0.0699,0.15989 -0.0286,0.78348 0.009,0.95412 0.0413,0.16695 0.30583,0.70784 0.43742,0.82438 0.12795,0.1133 0.72438,0.0806 0.89471,0.0944 0.17397,0.0172 0.71058,0.0814 0.86085,-0.007 0.15027,-0.0887 0.56478,-0.49777 0.63464,-0.65765 0.063,-0.15949 0.24996,-0.78307 0.21193,-0.95371 -0.038,-0.17062 -0.61113,-0.49566 -0.74273,-0.61221 -0.13125,-0.10955 -0.56261,-0.32213 -0.73295,-0.33601 -0.17396,-0.0171 -0.72509,-0.0356 -0.8717,0.0563"
       style="fill:#ff0000;fill-opacity:1;fill-rule:nonzero;stroke:#800000;stroke-width:1" />
    <path
       inkscape:connector-curvature="0"
       id="path4021"
       d="m 153.51483,154.64885 c 0.20427,-0.0539 0.63276,-0.11795 0.78292,-0.26543 0.15013,-0.1475 0.33352,-0.546 0.39033,-0.75007 0.0535,-0.20043 0.2084,-0.66986 0.1545,-0.87413 -0.0539,-0.20422 -0.28265,-0.66773 -0.43012,-0.8179 -0.14751,-0.15013 -0.56105,-0.58168 -0.76142,-0.6353 -0.20402,-0.0568 -0.75098,0.22199 -0.94835,0.27547 -0.20428,0.0539 -0.85877,0.0417 -1.00528,0.19245 -0.15021,0.14744 0.0198,0.83934 -0.037,1.0434 -0.0535,0.20044 -0.53114,0.71017 -0.4772,0.91446 0.0539,0.20423 0.72658,0.40213 0.87405,0.5523 0.14751,0.15013 0.36954,0.73165 0.57362,0.78844 0.20361,0.0499 0.67973,-0.36985 0.88401,-0.42375"
       style="fill:#ff0000;fill-opacity:1;fill-rule:nonzero;stroke:#800000;stroke-width:1" />
    <path
       inkscape:connector-curvature="0"
       id="path8175"
       d="m 144.29969,142.48988 c 0.10106,0.07 0.37501,0.19519 0.50035,0.20832 0.12536,0.0131 0.43425,-0.0264 0.54891,-0.0748 0.11095,-0.0517 0.39861,-0.21443 0.47181,-0.31919 0.0734,-0.098 -0.0406,-0.44028 -0.0274,-0.56562 0.0131,-0.12526 0.32308,-0.49002 0.27138,-0.60104 -0.0521,-0.11797 -0.42789,-0.26806 -0.52936,-0.34496 -0.10472,-0.0732 -0.37028,-0.28891 -0.49564,-0.30202 -0.12536,-0.0131 -0.38555,0.2586 -0.50023,0.30708 -0.11462,0.0484 -0.49459,0.0577 -0.56821,0.15554 -0.0732,0.10472 -0.11798,0.44991 -0.13478,0.57199 -0.0131,0.12527 0.12483,0.40406 0.17653,0.51506 0.0521,0.11797 0.18519,0.37271 0.28671,0.44958"
       style="fill:#ff0000;fill-opacity:1;fill-rule:nonzero;stroke:#800000;stroke-width:1" />
    <path
       inkscape:connector-curvature="0"
       id="path8177"
       d="m 152.38934,127.83433 c 0.0687,-0.12177 0.35185,-0.41238 0.35054,-0.55049 0.002,-0.14192 -0.18863,-0.48667 -0.2582,-0.60696 -0.0695,-0.12034 -0.22603,-0.53281 -0.34457,-0.60518 -0.12171,-0.0688 -0.55851,0.14458 -0.70043,0.14281 -0.14195,-0.002 -0.44604,0.003 -0.56635,0.0724 -0.12394,0.0663 -0.37782,0.27198 -0.45017,0.39053 -0.072,0.12543 -0.0835,0.44782 -0.0821,0.58609 -0.002,0.14191 0.16451,0.37397 0.23408,0.49427 0.0663,0.12401 0.0635,0.59109 0.18531,0.65981 0.11853,0.0724 0.5251,-0.0111 0.66337,-0.0126 0.14188,0.002 0.47967,-0.0187 0.59997,-0.0883 0.12027,-0.0696 0.29294,-0.3602 0.36856,-0.48238"
       style="fill:#ff0000;fill-opacity:1;fill-rule:nonzero;stroke:#800000;stroke-width:1" />
    <path
       inkscape:connector-curvature="0"
       id="path8179"
       d="m 153.14892,136.17983 c 0.22189,0.0661 0.72648,0.34333 0.94819,0.29182 0.2286,-0.0519 0.75566,-0.31565 0.92244,-0.47451 0.16675,-0.15888 0.55953,-0.63936 0.6257,-0.86121 0.0661,-0.22196 -0.21392,-0.78952 -0.26543,-1.01123 -0.0552,-0.22495 -0.17008,-0.75066 -0.32893,-0.91744 -0.15887,-0.16674 -0.63021,-0.46674 -0.84888,-0.53651 -0.22189,-0.0661 -0.83917,-0.3192 -1.06452,-0.27094 -0.22496,0.0552 -0.71316,0.50332 -0.88681,0.6626 -0.16675,0.15887 -0.65088,0.61716 -0.71702,0.83906 -0.0661,0.22196 0.25822,0.83525 0.31339,1.06019 0.0515,0.22172 0.15598,0.80342 0.31483,0.97019 0.15562,0.17042 0.7651,0.18187 0.98703,0.24796"
       style="fill:#ff0000;fill-opacity:1;fill-rule:nonzero;stroke:#800000;stroke-width:1" />
    <path
       inkscape:connector-curvature="0"
       id="path8181"
       d="m 159.66481,154.24732 c -0.36855,0.0258 -1.12204,-0.0219 -1.44286,0.16365 -0.32405,0.18916 -0.34633,1.07602 -0.5558,1.3862 -0.20993,0.30326 -1.1127,0.64517 -1.17002,1.01184 -0.0504,0.36627 0.27369,1.0903 0.38181,1.44693 0.11136,0.35297 0.0689,1.30678 0.32084,1.58205 0.25155,0.26832 1.29728,0.0597 1.64465,0.19769 0.34694,0.13114 0.93013,0.39323 1.29867,0.36741 0.37178,-0.0295 0.76849,-0.61737 1.0893,-0.80287 0.32405,-0.18915 1.24308,-0.0927 1.45256,-0.40291 0.20625,-0.30651 -0.0811,-1.10888 -0.0307,-1.47514 0.0537,-0.36991 0.70841,-1.09453 0.5934,-1.45073 -0.11136,-0.35299 -1.0068,-0.63072 -1.2583,-0.8991 -0.25513,-0.27163 -0.52621,-1.03345 -0.86991,-1.16826 -0.3506,-0.13437 -1.08184,0.0138 -1.45363,0.0432"
       style="fill:#ff0000;fill-opacity:1;fill-rule:nonzero;stroke:#800000;stroke-width:1" />
    <path
       inkscape:connector-curvature="0"
       id="path8183"
       d="m 148.3406,146.65286 c 0.0452,-0.33827 -0.11871,-1.04434 -0.24865,-1.36159 -0.13318,-0.31362 -0.44027,-1.04213 -0.70868,-1.24723 -0.27205,-0.20833 -1.04928,-0.36179 -1.38755,-0.40698 -0.3415,-0.0415 -1.07202,0.0616 -1.38562,0.19476 -0.31362,0.13318 -0.90238,0.57707 -1.11071,0.84913 -0.20467,0.27531 -0.38383,0.97107 -0.42538,1.31257 -0.0415,0.3415 -0.42067,1.21888 -0.2875,1.5325 0.13318,0.31361 0.98744,0.71149 1.26279,0.91612 0.27205,0.20834 0.91039,0.69537 1.25191,0.7369 0.33826,0.0452 1.19296,-0.007 1.50656,-0.13984 0.31361,-0.13317 1.21841,-0.49939 1.42308,-0.7747 0.20834,-0.27206 0.0682,-1.27014 0.10975,-1.61164"
       style="fill:#ff0000;fill-opacity:1;fill-rule:nonzero;stroke:#800000;stroke-width:1" />
    <path
       inkscape:connector-curvature="0"
       id="path8185"
       d="m 144.87461,132.49163 c -0.15993,0.32796 -0.75761,1.02487 -0.73178,1.39343 0.0222,0.3653 0.35381,1.2134 0.55549,1.51593 0.20532,0.30579 0.72122,1.2257 1.04915,1.38567 0.33155,0.16326 1.37468,0.0238 1.73999,0.002 0.36166,-0.0254 1.18457,-0.37281 1.49034,-0.57816 0.30256,-0.20167 0.78212,-0.90533 0.94536,-1.23688 0.16361,-0.32471 0.48085,-1.13951 0.45868,-1.50482 -0.0222,-0.36532 -0.23955,-1.26877 -0.4449,-1.57455 -0.20166,-0.30255 -1.02518,-0.70569 -1.35676,-0.8689 -0.32791,-0.16002 -1.15197,-0.62882 -1.51729,-0.60665 -0.36854,0.0258 -1.0424,0.72046 -1.34494,0.92214 -0.30579,0.20533 -0.68335,0.82322 -0.84333,1.15114"
       style="fill:#ff0000;fill-opacity:1;fill-rule:nonzero;stroke:#800000;stroke-width:1" />
    <path
       style="fill:#ff0000;fill-opacity:1;fill-rule:nonzero;stroke:#800000"
       d="m 178.22607,100.95253 c -0.25879,0.26368 -0.85449,0.72754 -0.97168,1.0791 -0.11719,0.35645 0.4541,1.03516 0.50293,1.40625 0.0439,0.36621 -0.40527,1.2207 -0.20508,1.5332 0.20508,0.30763 0.92774,0.63478 1.24512,0.83009 0.31738,0.19042 0.91797,0.93261 1.28906,0.97167 0.36621,0.0341 1.01074,-0.81542 1.36231,-0.94238 0.34667,-0.13184 0.95703,-0.32227 1.21582,-0.58594 0.25878,-0.26855 0.16601,-0.97168 0.2832,-1.32324 0.11719,-0.35645 0.86914,-0.89355 0.82031,-1.26465 -0.0488,-0.36621 -0.7959,-0.77636 -1.00098,-1.08399 -0.20507,-0.3125 -0.19531,-1.28906 -0.51757,-1.47948 -0.31739,-0.190434 -1.17188,0.19531 -1.53809,0.16113 -0.37109,-0.0342 -1.0791,-0.424814 -1.42578,-0.297864 -0.35156,0.131844 -0.80078,0.727554 -1.05957,0.996104"
       id="path4134"
       inkscape:connector-curvature="0" />
    <path
       style="fill:#ff0000;fill-opacity:1;fill-rule:nonzero;stroke:#800000"
       d="m 155.37251,190.12885 c -0.0293,-0.13671 -0.01,-0.54199 -0.10254,-0.64452 -0.0928,-0.10738 -0.46387,-0.23927 -0.5957,-0.2832 -0.13184,-0.044 -0.52246,-0.24903 -0.65918,-0.22462 -0.13672,0.0292 -0.32227,0.47852 -0.42969,0.57129 -0.10742,0.0928 -0.33203,0.29785 -0.37598,0.42969 -0.0488,0.13184 -0.10253,0.4541 -0.0781,0.59082 0.0293,0.1416 0.23437,0.39063 0.32715,0.49317 0.0928,0.10737 0.37109,0.1709 0.50293,0.21483 0.13183,0.0489 0.43945,0.40039 0.57617,0.3711 0.13672,-0.0244 0.38574,-0.35645 0.48828,-0.44922 0.10743,-0.0927 0.34668,-0.33203 0.39063,-0.46386 0.0439,-0.13184 -0.0195,-0.46388 -0.0439,-0.60548"
       id="path4136"
       inkscape:connector-curvature="0" />
    <path
       style="fill:#ff0000;fill-opacity:1;fill-rule:nonzero;stroke:#800000"
       d="m 230.83442,178.3476 c 0.0977,0.35156 0.1123,1.26954 0.37598,1.52833 0.25879,0.25878 1.06934,0.67382 1.4209,0.7666 0.35644,0.0928 1.35254,0.43945 1.7041,0.3418 0.35645,-0.0976 1.04492,-0.89357 1.30371,-1.15235 0.25391,-0.25879 0.63965,-1.06445 0.73242,-1.4209 0.0928,-0.35157 -0.0147,-1.19629 -0.1123,-1.55273 -0.0928,-0.35156 -0.3955,-1.17187 -0.65429,-1.43066 -0.25879,-0.2588 -1.02051,-0.79103 -1.37696,-0.8838 -0.35156,-0.0928 -1.23535,0.15137 -1.59179,0.24902 -0.35157,0.0976 -1.2793,0.29298 -1.53809,0.55177 -0.25879,0.26367 -0.30273,1.23046 -0.39551,1.58202 -0.0928,0.35645 0.0342,1.06934 0.13184,1.4209"
       id="path4138"
       inkscape:connector-curvature="0" />
    <path
       sodipodi:nodetypes="zzzzz"
       inkscape:connector-curvature="0"
       id="path3951"
       d="m 9.7227199,143.99512 c -0.95744,1.13693 2.0340801,11.80107 3.2703701,12.02082 1.23629,0.21975 6.45305,-1.60691 7.33623,-2.38649 0.88317,-0.77957 -2.88307,-10.8402 -4.33103,-11.40209 -1.44796,-0.56189 -5.31813,0.63084 -6.2755701,1.76776 z"
       style="color:#000000;fill:#483737;fill-opacity:0.7556561;fill-rule:nonzero;stroke:#000000;stroke-width:1px;stroke-linecap:butt;stroke-linejoin:miter;stroke-miterlimit:4;stroke-opacity:1;stroke-dasharray:none;stroke-dashoffset:0;marker:none;visibility:visible;display:inline;overflow:visible;enable-background:accumulate" />
    <g
       id="g3989"
       transform="matrix(0.07415279,0.99724689,-0.99724689,0.07415279,265.25784,-139.19171)">
      <path
         sodipodi:nodetypes="ccccc"
         inkscape:connector-curvature="0"
         id="rect3978"
         d="m 145.3366,144.00009 3.56299,0.0506 c -1.24514,6.43727 -0.57858,11.60617 0.47358,17.3826 l -4.74555,0.0376 c 1.37097,-6.73705 2.23253,-11.58374 0.70898,-17.47088 z"
         style="color:#000000;fill:#ffffff;fill-opacity:1;fill-rule:evenodd;stroke:#999999;stroke-width:0.5;stroke-linecap:square;stroke-linejoin:miter;stroke-miterlimit:4;stroke-opacity:1;stroke-dashoffset:0;marker:none;visibility:visible;display:inline;overflow:visible;enable-background:accumulate"
         transform="matrix(0.92523585,-0.37939244,0.37939244,0.92523585,0,0)" />
      <path
         id="path3922"
         d="m 191.375,73.4375 c -2.43034,0.06929 -4.67311,1.332275 -5.84375,3.90625 -1.70275,3.743963 8.89936,27.25377 11.15625,32.8125 l 3.21875,0.65625 -0.90625,-4.625 3.9375,2.5 2.125,-4.84375 3.03125,1.96875 1.71875,-2.71875 c -0.37781,0.12594 -3.3092,-7.283753 -6.625,-14.65625 l -5.03125,-3.75 -2.125,2.46875 -4.40625,0.34375 1.59375,-7.40625 2.59375,-5.1875 c -0.38731,-0.411181 -0.76838,-0.679929 -1.09375,-0.8125 -1.09497,-0.446135 -2.23905,-0.687744 -3.34375,-0.65625 z"
         style="fill:#225500;stroke:#ff0000;stroke-width:1px;stroke-linecap:butt;stroke-linejoin:miter;stroke-opacity:1"
         inkscape:connector-curvature="0" />
      <path
         sodipodi:nodetypes="cc"
         inkscape:connector-curvature="0"
         id="path3930"
         d="m 196.04535,99.447397 c 0.62591,-2.076337 5.19654,-1.564353 6.98268,-2.916815"
         style="fill:none;stroke:#000000;stroke-width:1px;stroke-linecap:butt;stroke-linejoin:miter;stroke-opacity:1" />
      <path
         sodipodi:nodetypes="cccccscccccsc"
         inkscape:connector-curvature="0"
         id="path3932"
         d="m 190,69.46875 -1.125,1.78125 -1.84375,0.71875 -0.625,2.28125 -0.875,0.625 c 0.68036,3.523131 2.25974,8.351753 3.09375,8.5 0.39803,0.07075 1.55801,-0.192602 2.50379,-0.442862 l 0.40246,-1.775888 -0.875,-1.5 1.80047,-1.080156 1.92521,-3.880092 C 193.37519,72.046685 192.3402,69.840038 191.625,69.5625 191.23235,69.410131 190.6425,69.39917 190,69.46875 z"
         style="color:#000000;fill:#483737;fill-opacity:0.7556561;fill-rule:nonzero;stroke:#000000;stroke-width:1px;stroke-linecap:butt;stroke-linejoin:miter;stroke-miterlimit:4;stroke-opacity:1;stroke-dasharray:none;stroke-dashoffset:0;marker:none;visibility:visible;display:inline;overflow:visible;enable-background:accumulate" />
      <path
         style="fill:none;stroke:#000000;stroke-width:1px;stroke-linecap:butt;stroke-linejoin:miter;stroke-opacity:1"
         d="m 194.63114,96.08864 c 0.62591,-2.076337 5.19654,-1.564353 6.98268,-2.916815"
         id="path3953"
         inkscape:connector-curvature="0"
         sodipodi:nodetypes="cc" />
    </g>
    <path
       style="fill:#ff0000;fill-opacity:1;fill-rule:nonzero;stroke:#800000"
       d="m 179.82904,116.47566 c 0.20996,-0.0976 0.77149,-0.22461 0.90332,-0.41016 0.13672,-0.19043 0.35645,-0.7373 0.37598,-0.9668 0.0195,-0.22949 -0.005,-0.8496 -0.10254,-1.05956 -0.0977,-0.20997 -0.68359,-0.44923 -0.86914,-0.58107 -0.19043,-0.13183 -0.625,-0.44921 -0.85449,-0.46875 -0.22949,-0.0195 -0.78125,0.0684 -0.99121,0.16114 -0.20996,0.0976 -0.83985,0.31739 -0.97656,0.50293 -0.13184,0.19043 -0.2002,0.84961 -0.22461,1.08398 -0.0195,0.22949 -0.0781,0.89355 0.0195,1.10352 0.0977,0.20996 0.74707,0.4541 0.9375,0.58593 0.18555,0.13184 0.64942,0.49805 0.87891,0.51759 0.22949,0.0244 0.69336,-0.3711 0.90332,-0.46875"
       id="path3998"
       inkscape:connector-curvature="0" />
    <path
       inkscape:connector-curvature="0"
       id="path4001"
       d="m 171.10564,95.37654 c -0.0293,-0.13671 -0.01,-0.54199 -0.10254,-0.64452 -0.0928,-0.10738 -0.46387,-0.23927 -0.5957,-0.2832 -0.13184,-0.044 -0.52246,-0.24903 -0.65918,-0.22462 -0.13672,0.0292 -0.32227,0.47852 -0.42969,0.57129 -0.10742,0.0928 -0.33203,0.29785 -0.37598,0.42969 -0.0488,0.13184 -0.10253,0.4541 -0.0781,0.59082 0.0293,0.1416 0.23437,0.39063 0.32715,0.49317 0.0928,0.10737 0.37109,0.1709 0.50293,0.21483 0.13183,0.0489 0.43945,0.40039 0.57617,0.3711 0.13672,-0.0244 0.38574,-0.35645 0.48828,-0.44922 0.10743,-0.0927 0.34668,-0.33203 0.39063,-0.46386 0.0439,-0.13184 -0.0195,-0.46388 -0.0439,-0.60548"
       style="fill:#ff0000;fill-opacity:1;fill-rule:nonzero;stroke:#800000" />
    <path
       style="fill:#ff0000;fill-opacity:1;fill-rule:nonzero;stroke:#800000"
       d="m 176.08415,83.744146 c 0.11719,-0.17578 0.39551,-0.50782 0.41015,-0.71778 0.0146,-0.20995 -0.1123,-0.62987 -0.20507,-0.82031 -0.0928,-0.18554 -0.28809,-0.63964 -0.46387,-0.75683 -0.17578,-0.11712 -0.6543,-0.3125 -0.86426,-0.32715 -0.20996,-0.0146 -0.80566,-0.0635 -0.99121,0.0292 -0.19043,0.0927 -0.41504,0.66407 -0.52734,0.83497 -0.11719,0.17578 -0.61524,0.60058 -0.625,0.81055 -0.0147,0.20996 0.57129,0.61523 0.66406,0.80566 0.0928,0.18555 0.0732,0.88379 0.24902,1.00097 0.17578,0.11713 0.81055,-0.18066 1.02051,-0.16601 0.20996,0.0146 0.76172,0.30274 0.95215,0.20996 0.18555,-0.0976 0.26367,-0.72753 0.38086,-0.90332"
       id="path4003"
       inkscape:connector-curvature="0" />
    <path
       style="fill:#ff0000;fill-opacity:1;fill-rule:nonzero;stroke:#800000"
       d="m 198.55236,113.00828 c -0.19043,-0.2832 -0.78125,-0.70312 -1.08886,-0.85448 -0.30762,-0.14649 -1.02051,-0.48829 -1.35743,-0.46388 -0.34179,0.0244 -1.02539,0.42481 -1.30859,0.61524 -0.2832,0.19531 -0.76172,0.75684 -0.9082,1.06445 -0.14649,0.30762 -0.29297,1.03027 -0.26856,1.37207 0.0293,0.3418 0.35645,0.98145 0.55176,1.26465 0.19531,0.2832 0.49316,1.1914 0.80078,1.33789 0.30762,0.14649 1.21094,-0.122 1.55274,-0.15136 0.34179,-0.0244 1.14257,-0.083 1.42578,-0.27833 0.2832,-0.19042 0.88867,-0.7959 1.03515,-1.10351 0.14649,-0.30761 0.58106,-1.18164 0.55176,-1.52344 -0.0244,-0.3418 -0.79102,-0.9961 -0.98633,-1.2793"
       id="path4005"
       inkscape:connector-curvature="0" />
  </g>
</svg>
