<?xml version="1.0" encoding="UTF-8" standalone="no"?>
<!-- Created with Inkscape (http://www.inkscape.org/) -->

<svg
   xmlns:dc="http://purl.org/dc/elements/1.1/"
   xmlns:cc="http://creativecommons.org/ns#"
   xmlns:rdf="http://www.w3.org/1999/02/22-rdf-syntax-ns#"
   xmlns:svg="http://www.w3.org/2000/svg"
   xmlns="http://www.w3.org/2000/svg"
   xmlns:sodipodi="http://sodipodi.sourceforge.net/DTD/sodipodi-0.dtd"
   xmlns:inkscape="http://www.inkscape.org/namespaces/inkscape"
   width="210mm"
   height="297mm"
   id="svg2"
   version="1.1"
   inkscape:version="0.48.2 r9819"
   sodipodi:docname="Tiles.svg">
  <defs
     id="defs4" />
  <sodipodi:namedview
     id="base"
     pagecolor="#ffffff"
     bordercolor="#666666"
     borderopacity="1.0"
     inkscape:pageopacity="0.0"
     inkscape:pageshadow="2"
     inkscape:zoom="31.678384"
     inkscape:cx="11.137617"
     inkscape:cy="1037.7629"
     inkscape:document-units="px"
     inkscape:current-layer="layer1"
     showgrid="true"
     inkscape:window-width="1280"
     inkscape:window-height="972"
     inkscape:window-x="1432"
     inkscape:window-y="-8"
     inkscape:window-maximized="1">
    <inkscape:grid
       type="xygrid"
       id="grid2987" />
  </sodipodi:namedview>
  <metadata
     id="metadata7">
    <rdf:RDF>
      <cc:Work
         rdf:about="">
        <dc:format>image/svg+xml</dc:format>
        <dc:type
           rdf:resource="http://purl.org/dc/dcmitype/StillImage" />
        <dc:title></dc:title>
      </cc:Work>
    </rdf:RDF>
  </metadata>
  <g
     inkscape:label="Calque 1"
     inkscape:groupmode="layer"
     id="layer1">
    <rect
       style="color:#000000;fill:#008000;fill-opacity:1;fill-rule:evenodd;stroke:none;stroke-width:1;stroke-linecap:square;stroke-linejoin:miter;stroke-miterlimit:4;stroke-opacity:1;stroke-dasharray:none;stroke-dashoffset:0;marker:none;visibility:visible;display:inline;overflow:visible;enable-background:accumulate"
       id="rect2989"
       width="5"
       height="5"
       x="0"
       y="2.3621826"
       inkscape:export-filename="C:\Users\Miaou\Documents\Projs\ZombCraftGit\res\Grass.png"
       inkscape:export-xdpi="360"
       inkscape:export-ydpi="360" />
    <path
       style="fill:#803300;stroke:none"
       d="m 3,4.3621826 1,0 0,1 -1,0 z"
       id="path3761"
       inkscape:connector-curvature="0" />
    <path
       inkscape:connector-curvature="0"
       id="path3763"
       d="m 1,3.3621826 1,0 0,1 -1,0 z"
       style="fill:#c87137;stroke:none" />
    <path
       style="fill:#550000;stroke:none"
       d="m 12,10.362183 1,1 0,3 -1,0 -2,1 -1,0 0,-4 1,-1"
       id="path3769"
       inkscape:connector-curvature="0"
       sodipodi:nodetypes="cccccccc" />
    <path
       style="fill:#0000ff;stroke:none"
       d="m 10,14.362183 2,0 0,6 -1,0 0,-2 -1,0 z"
       id="path3767"
       inkscape:connector-curvature="0"
       sodipodi:nodetypes="ccccccc" />
    <rect
       style="color:#000000;fill:#d45500;fill-opacity:1;fill-rule:evenodd;stroke:none;stroke-width:0.50000000000000000;marker:none;visibility:visible;display:inline;overflow:visible;enable-background:accumulate"
       id="rect3771"
       width="2"
       height="2"
       x="10"
       y="8.3621826" />
    <path
       style="fill:none;stroke:#000000;stroke-width:0.5;stroke-linecap:butt;stroke-linejoin:miter;stroke-miterlimit:4;stroke-opacity:1;stroke-dasharray:none"
       d="m 11,15.362183 0,3 -1,0 0,-6 0,3 -1,0 0,-4 1,-1 0,-2.0000004 2,0 0,2.0000004 1,1 0,3 -1,0 0,-2 0,8 -1,0 z"
       id="path3765"
       inkscape:connector-curvature="0"
       sodipodi:nodetypes="cccccccccccccccccc"
       inkscape:export-filename=".\Dude0.png"
       inkscape:export-xdpi="360"
       inkscape:export-ydpi="360" />
    <path
       sodipodi:nodetypes="cccccccc"
       inkscape:connector-curvature="0"
       id="path2992"
       d="m 16,10.362183 -1,1 0,3 1,0 2,1 1,0 0,-4 -1,-1"
       style="fill:#550000;stroke:none" />
    <path
       sodipodi:nodetypes="ccccccc"
       inkscape:connector-curvature="0"
       id="path2994"
       d="m 18,14.362183 -2,0 0,6 1,0 0,-2 1,0 z"
       style="fill:#0000ff;stroke:none" />
    <rect
       y="8.3621826"
       x="-18"
       height="2"
       width="2"
       id="rect2996"
       style="color:#000000;fill:#d45500;fill-opacity:1;fill-rule:evenodd;stroke:none;stroke-width:0.5;marker:none;visibility:visible;display:inline;overflow:visible;enable-background:accumulate"
       transform="scale(-1,1)" />
    <path
       inkscape:export-ydpi="360"
       inkscape:export-xdpi="360"
       inkscape:export-filename=".\Dude1.png"
       sodipodi:nodetypes="cccccccccccccccccc"
       inkscape:connector-curvature="0"
       id="path2998"
       d="m 17,15.362183 0,3 1,0 0,-6 0,3 1,0 0,-4 -1,-1 0,-2.0000008 -2,0 0,2.0000008 -1,1 0,3 1,0 0,-2 0,8 1,0 z"
       style="fill:none;stroke:#000000;stroke-width:0.5;stroke-linecap:butt;stroke-linejoin:miter;stroke-miterlimit:4;stroke-opacity:1;stroke-dasharray:none" />
  </g>
</svg>
